<?xml version="1.0" encoding="UTF-8"?>
<svg id="Layer_3" data-name="Layer 3" xmlns="http://www.w3.org/2000/svg" viewBox="0 0 854.89 232.96">
  <g>
    <path d="M180.61,62.91C171.31-.88,92.89,1.33,72.51,5.76S9.41,29.85,4.28,77.54c-6.2,57.6,11.57,126.5,34.11,141.33,16.84,11.08,30.13,11.96,44.3,10.19,14.18-1.77,40.32-13.29,42.09-22.6,3.85-20.23-5.32-50.06-5.32-50.06,0,0,70.44-29.68,61.14-93.48ZM107.21,93.7c-2.05,1.02-4.52-.12-5.07-2.34-.82-3.33-2.03-7.99-3.14-11.52-1.06-3.35-2.85-7.96-4.13-11.14-.8-2,.36-4.24,2.46-4.72,7.69-1.78,24.13-4.15,26.83,7.28,2.63,11.09-10.13,19.06-16.95,22.45Z" fill="#fff"/>
    <g>
      <path d="M180.61,62.91C171.31-.88,92.89,1.33,72.51,5.76S9.41,29.85,4.28,77.54c-6.2,57.6,11.57,126.5,34.11,141.33,16.84,11.08,30.13,11.96,44.3,10.19,14.18-1.77,40.32-13.29,42.09-22.6,3.85-20.23-5.32-50.06-5.32-50.06,0,0,70.44-29.68,61.14-93.48ZM107.21,93.7c-2.05,1.02-4.52-.12-5.07-2.34-.82-3.33-2.03-7.99-3.14-11.52-1.06-3.35-2.85-7.96-4.13-11.14-.8-2,.36-4.24,2.46-4.72,7.69-1.78,24.13-4.15,26.83,7.28,2.63,11.09-10.13,19.06-16.95,22.45Z" fill="none"/>
      <path d="M110.51,94.45c.6.67,1.38-.68,1.89-.66v.08c.63-1.15,2.32-.77,2.9-1.91,0,.08.12.29-.09.45.62-.55,1.41-1.35,1.75-.99,1.52-1.22,3.76-2.99,4.08-4.46l.04.16c.1-.92.58-.76.92-1.55.08.01.14-.01.16.01.07-.46.39-.96.75-1.39.36-.43.73-.85.79-1.2l.3.15c.26-.48.54-.95.78-1.44-.11.17-.25.33-.37.49-.35-.33-.04-.48.3-.8.35-.3.8-.73.78-1.39.29-.5-.02-1.24-.26-1.88-.22-.65-.53-1.24-.23-1.74-.34-.58.61.57.42-.26.48.04.24.42.65.27-.05-.42.14-.73.28-1.08.12-.35.22-.75.06-1.26l.37-.05c-.18-.34-.21-.66-.24-.98-.04-.31-.02-.62,0-.91.03-.59.09-1.15-.33-1.52-.67-1.24.81-1.28-.45-2.45l.18-.77c-.24-.66-.76-.14-.95-.89.3-.14-.33-.94.18-.75-.33-.87-1.07-1.48-1.87-2.02-.8-.55-1.63-1.06-2.39-1.98-.72.29-1.52-.51-2.02-.2.06-.3-1.95-.77-.64-.93.11-.01.28.06.23.15l.27-.29c-.94-1.09-2.23-.35-3.3-.68.31.19.75.26.4.44-.34-.09-.68-.19-1.02-.27l.27-.26c-.5-.15-1.01-.31-1.52-.43l.16.41c-.72-.3-.93-.97-1.82-.51-.4.27.66.58-.13.63-.95-.33-2.42-.77-3.67-.85.13.43-.21.42-.54.52l-.05-.37c-1.28.58-.53-.81-1.8-.31l-.19.54c-1.08.84-.71-.72-1.87.42.49-.12.33.79-.3.7l.11-.38c-.33.12-.42.28-.66.24.18-.22.04-.53-.45-.4l.27-.49-.85.79c-.79-.27-1.85.4-2.23-.04,0,0-1.6.05-1.83.68.24-.4-.64-.35-.49-.8-.04.06-.09.12-.15.18-.04.03-.05.06-.11.09l-.22.11c-.31.15-.64.31-.96.46-.66.3-1.29.65-1.77.73l.11-.13c-1.47.74-2.24,2.06-2.58,3.31-.34,1.29-.37,2.51-.36,3.94.37-.17.55,1.27.99.77.05.09.11.18.16.27.07.13.14.26.21.39.04.08.08.16.11.24.06.16.11.33.14.5.06.33.09.65.13.93.09.56.29.95,1.15.91.34.63-.07.93-.02,1.3l-.14-.13c.6,1.19.75,1.55,1.06,2.48.32.4,1.1.2,1.22,1.1-.39-.16-.22.16-.11.47-.12-.18-.25-.2-.31.27.11.02.2.09.28.16-.02.01-.03.03-.07.04.28.48.34.36.3.1.05,0,.1-.04.16-.15-.2.67.53,1.49.03,1.72.59,1.52,1.41,2.53,1.99,3.8-.23.23-.55-.01-.76-.37l.36.92c-.39.1-.37-.48-.53-.74-.32,1.3,1.25,2.14,1.04,3.62l.38.19-.03.09c.16-.05.46.19.57.37-.29.28-.78.2-.58.84-.19.6.56,1.42.93,2.05-.04-.38.18-.31.34-.18.1.32-.19.6.03.81l-.45.15c.1-.06.19-.04.28.02.09.06.16.14.27.34.18.35.42.72.55.77-.2.43-.6-.61-.86-.69.35,1.05.57,1.27.7,1.51.17.22.28.5,1.1,1.24,1.11.44.13-.46.79-.46.79.47,1.63.48,2.55.87-.11.1-.23.19-.36.28.68-.02,1.22.21,1.83.41.6.21,1.25.36,1.8.21l-2.71-5.44c-.1.02-.11.02-.21,0-.04-.01-.09-.02-.14-.03-.03,0-.06-.02-.09-.05,0,0-.02-.02-.03-.03,0,.02-.05-.15-.08-.21-.06-.18-.13-.37-.2-.56-.79-3.7-.27-4.9-1.63-8.61-.22-.92-.49-1.84-.82-2.77-.35-.94-.74-1.84-1.1-2.7-.89-.61-.83-2.27-1.7-3.05l.2-.5c-.3-.27-.56-.61-.51-1.01l.11-.02c-.44-.39-.51-1.01-.73-1.2l.11-.02-.28-.58.18.05c-.21-.26-.39-.54-.55-.82-.08-.14-.15-.28-.21-.43l-.09-.22v-.04c-.03-.05-.02-.11.01-.16l-.44.08c.19-.27.12-.37.07-.57-.05-.17.01-.43.39-.35l.07.08c-.11-.3-.01-.46.12-.49.06-.02.14,0,.21.02,0,.02.15,0,.24.01h.3c.8.05,1.58.11,2.46-.6-.22.18.14.2.14.31.87-.28,1.82-.47,1.72-1.32.67-.08.57.2.7.51-.05-.37.51-.6,1.02-.67l-.22.17c.49-.09.98-.18,1.47-.26l-.35-.68c.81.14.27.84,1.01.62l-.04-.58c1.11.05,1.78.93,2.78,1.36,2.09.16,4.23.09,6.2.48,1.95.37,3.71,1.38,4.27,2.93l-.27.38c-.24.22.08.2.39.26.31.04.66.11.43.31l.42.19c-.05.15-.07.39-.28.29.13.3.21.28.49.43l-.24.48c.1,1.32.97,2.46.76,3.97-.3.42-.44.93-.62,1.49-.25.55-.33,1.19-.6,1.82l-.32.98c-.14.32-.28.64-.4.96-.22.65-.58,1.22-.81,1.74-.63,1.53-2.17,2.55-3.78,3.36-1.59.85-3.22,1.56-4.35,2.92-.14-.02-.27.31-.23.37-.89.52-1.8,1.03-2.73,1.49,0,0-1.14-.15-2.19.45l2.71,5.44c.91-.39,1.57-.87,2.09-1.69Z" fill="#010101"/>
      <path d="M179.05,79.81c-.52.6-.76,2.98-1.07,5.55-.21,1.27-.42,2.6-.61,3.77-.19,1.17-.52,2.16-.74,2.81v-.27c-.15.88-.32,1.77-.52,2.65-.23.87-.53,1.73-.82,2.6-.31.86-.58,1.73-.95,2.57l-1.14,2.49c-.71,1.68-1.67,3.23-2.44,4.84-.82,1.59-1.71,3.11-2.41,4.7.07-.27-.06-.52.71-1.9-2.33,4.43-6.28,10.12-6.98,10.05-3.62,4.79-8.63,10.02-13.64,14.46-5.02,4.44-9.98,8.14-13.01,10.62l.37-.41c-3.42,2.9-4.78,3.21-8.96,5.91-.27.07-.59.21-.56.16-2.04,1.38-3.96,2.55-9.28,4.84.39,1.37.78,2.74,1.16,4.07.25.96.49,1.89.72,2.77.4,1.59.75,2.98,1.04,4l-.27.32c.74,3.15,1.42,6.31,1.98,9.49-.17-1.19-.37-2.39-.58-3.58,1.15,1.07.85,7.3,2.08,14.18.2,3.26.9,6.53,1.25,9.89.44,3.35.46,6.84-.34,10.12-.07.74-.18.94-.2.89-.02-.05.01-.34-.03-.59-.03-.24-.08-.43-.17-.31-.04.06-.1.19-.16.44-.11.24-.19.6-.43,1.1-.4-.12.47-1.86-.26-1.06-.28.89-.83,1.7-1.46,2.41-.61.72-1.34,1.35-2.09,1.98-1.56,1.24-3.34,2.46-5.69,4.14l-.4-.19c-3.03,2.26-6.33,3.78-9.37,5-3.05,1.22-5.85,2.16-8.14,3.29-3.68,1.41-5.04,1.45-6.39,1.59-.68.06-1.36.14-2.35.33-.99.2-2.29.53-4.21.98l-3.19-.14c-1.73.11-2.33.32-2.99.48-.65.16-1.37.36-3.28.25.22-.27-4.79-.32-2.57-.57-4.25-.34-8.49-.78-12.99-1.93-4.49-1.12-9.19-3.12-13.89-6.33-.62-.16-1.36-.54-2.17-.97-.81-.44-1.71-.95-2.41-1.48-.37-.26-.74-.52-1.09-.77-.34-.28-.67-.56-.97-.81-.62-.49-1.16-.89-1.54-1.16,0-.1-.48-.66-1.12-1.37-.62-.73-1.35-1.7-1.97-2.47-1.14-1.66-1.75-2.64.34-.26.38.38.97,1.12.85,1.14l.75.34c-3.43-5.19-6.97-9.25-9.72-15.16.69,1.81,1.94,4.03.92,2.64-.47-.88-.87-1.82-1.31-2.72-.44-.91-.86-1.82-1.24-2.76l.79,1.03c-.57-1.39-1.16-2.77-1.71-4.17-.52-1.41-1.09-2.81-1.58-4.24.02.44.04.87.09,1.3-1.38-4.23-1.3-5.89-3.33-10.5-.96-2.08.76,4.19-.75-.27-1.55-5.77-3.43-14.52-4.81-22.01-.28.79-.66-1.23-1.14-3.29l.32-.31c-1-3.93-.87-4.71-.8-5.46.09-.76.19-1.51-.6-5.44l-.72-1.33c-1.65-7.11.22-3.96-1.61-11.87.36,3.17-.69,1.58-.87-2.36l.45.96c-.27-2.16-.49-2.87-.5-4.32.28,1.28.57.64.29-2.54l.59,2.1c-.36-1.99-.72-3.98-1.02-5.98.06-2.34-.04-5.35-.11-8.01-.05-2.67-.02-4.99.22-5.95,0,0,.11-2.5.16-5.28.11-2.78.14-5.86-.04-7.02.21,2.02.72-3.46,1.01-1.87-.13-1.3-.08-3.86.1-6.47.06-1.32.25-2.58.42-3.73.09-.57.18-1.11.28-1.59.11-.48.24-.91.36-1.26l-.06.56c1.14-5.37,2.28-9.9,3.8-14.19,1.52-4.27,3.38-8.32,6.21-12.35-.29.08.25-.98.84-1.9.56-.93,1.06-1.79.46-1.41,2.72-4.38,6.09-7.74,8.93-10.36,2.85-2.63,5.16-4.59,6.09-6.42,3.66-3.02,4.72-3.05,6.77-4.37l-.88.71c3.61-2.53,6.06-4.02,8.32-5.25,2.25-1.25,4.29-2.28,7.31-3.6,2.94-1.44,3.11-2.48,8.78-4.22-1.71.9.55.06,2.67-.56-1.34.45-1.71.68,1.11.07.36-.21.95-.42,1.51-.62.03.02.15,0,.1.06,3.52-.97,2.89-.9,1.22-.56.07-.07-.08-.09-.61-.06,1.9-.28,4.45-.75,6.69-1.04,2.22-.3,4.06-.42,4.31-.18,5.52-.58,10.31-.83,14.87-.94,4.56-.1,8.9.01,13.55.43,1,.42-1.18.34-3.88.24,2.19.13,4.38.39,6.56.62-.11.39-3.78-.26-5.81-.35,3.86.7,7.87,1.04,12.02,1.68,2.09.27,4.18.71,6.32,1.16,2.11.56,4.28,1.12,6.4,2l1.91.27c.17.07.34.14.5.23.03-.17,2.03.33,3.33.76,1.08.78-.36.68,3.78,2.44.79.41,1.72.94,2.78,1.46,1.06.52,2.24,1.06,3.4,1.7,2.38,1.18,4.78,2.61,6.74,3.86-2.02-1.48-1.26-1.16-.28-.67,1.8,1.36,2.63,2.4,4.05,3.4l-.15.5c-.18-.46.98.42,2.29,1.48.67.51,1.31,1.13,1.84,1.64.53.51.96.9,1.14,1.01.31.58-.34,0-1.15-.75-.4-.37-.84-.79-1.22-1.12-.4-.31-.73-.54-.88-.59.86.72,1.46,1.4,1.98,1.94.52.54.93.97,1.27,1.32.7.69,1.04,1.13,1.39,1.56.35.43.71.86,1.32,1.62.3.39.71.82,1.13,1.43.42.62.94,1.36,1.57,2.28.75.93,1.11,1.35,1.24,1.48.14.12.1-.07.02-.33-.18-.51-.57-1.27.26-.43.56.91,1.11,1.82,1.67,2.73.28.46.56.92.84,1.38.27.47.49.97.74,1.46.48.99.96,2,1.44,3.05.43,1.07.76,2.21,1.12,3.39l-.84-1.35c.29.73.56,1.43.79,2.12.24.69.45,1.35.56,2.02.27,1.33.46,2.58.61,3.76.09.59.13,1.17.15,1.74.03.57.05,1.12.07,1.67.06,1.09.13,2.12.27,3.14l6.01-.88c-1.16-7.69-3.16-14.68-6.77-21.9-.5-.88-1-1.77-1.51-2.67-.54-.89-.99-1.85-1.63-2.71-1.23-1.76-2.43-3.65-3.97-5.4-.37-.45-.74-.9-1.12-1.36l-.57-.69-.63-.65c-.85-.87-1.71-1.76-2.6-2.68-1.89-1.71-3.85-3.52-6.14-5.16-5.23-4.04-9.94-6.66-14.2-8.8-2.16-.98-4.18-1.97-6.2-2.73-2-.84-3.97-1.51-5.96-2.19-3.99-1.28-8.06-2.42-12.82-3.29-4.76-.9-10.19-1.63-16.89-1.94-6.38-.41-13-.35-19.57.22-3.29.29-6.56.69-9.84,1.32-3.31.65-6.43,1.54-9.44,2.53-2.76,1.21-6.63,2.64-10.52,4.39-3.89,1.73-7.8,3.79-10.69,5.83-.85.35-1.69.73-2.52,1.13-.99.73-2.05,1.51-3.12,2.3-1.09.76-2.15,1.55-3.2,2.19l.06-.18c-2.76,2.4-6,4.94-7.21,6.3l.04-.18-1.61,1.53-1.55,1.59.43-.65c-2.19,2.33-4.24,4.84-6.23,7.31-1.92,2.52-3.77,5.01-5.33,7.46l.62-.18c-3.48,5.12-5.15,9.07-6.6,12.86-1.35,3.85-2.52,7.57-3.97,12.97l-.07-.17c-.42,3.51-.77,6.65-1.06,9.56-.31,2.89-.6,5.61-.89,8.35-.52,5.47-.95,11.04-.32,18.12-.14-1.77-.23.76-.32.62.21,6.53.74,13.49,1.61,13.53.3,4.73.03,3.87-.27,4.51.38-.06.85,4.04,1.31,7.71l-.33-1.68c.41,3.51.89,7.02,1.44,10.51.13-.72.25-1.44.4-2.16.61,5.58-.66,1.54.33,6.83l.57-.16c1.16,7.67,1.19,12.32,2.53,19.78,1.79,7.66,4.15,15.35,7.07,22.89,1.49,3.76,3.08,7.51,4.93,11.14,1.84,3.64,3.82,7.22,6.17,10.6,2.34,3.38,4.95,6.61,8.13,9.38.76.72,1.64,1.33,2.5,1.96.87.67,1.7,1.11,2.55,1.66.84.53,1.69,1.05,2.56,1.53.87.48,1.71,1.01,2.6,1.44,6.97,3.75,14.56,6.24,22.09,7.21.43.21.86.37,1.3.55.13.17.73.23,1.57.24.84,0,1.9-.12,2.99-.21,1.08-.14,2.16-.27,3.05-.36.89-.1,1.58-.13,1.87,0,1.15-.16,2.29-.38,3.43-.57.97,0,3.02-.1,1.33.24,1.57-.16,2.45-.31,3.15-.48.71-.17,1.3-.35,2.42-.68,1.16-.11,2.32-.26,3.47-.42,6.19-1.51,11.61-3.7,16.93-6.33,2.65-1.32,5.27-2.79,7.9-4.45,2.62-1.69,5.28-3.53,7.86-6.05.73-.7,1.48-1.45,2.19-2.42.71-.94,1.4-2.09,1.83-3.57l.15-.56c.05-.19.06-.29.08-.44.05-.28.1-.56.14-.84.09-.57.19-1.14.29-1.73.23-1.17.29-2.37.4-3.59.39-4.9.21-10.17-.36-15.45-.57-5.28-1.52-10.56-2.65-15.55-.57-2.49-1.17-4.92-1.8-7.23-.31-1.16-.63-2.29-.96-3.39-.14-.4-.28-.79-.41-1.16.79-.43,1.49-.81,2.16-1.17,5.27-2.94,10.61-6.14,15.9-9.71,5.28-3.58,10.53-7.47,15.42-11.87,4.89-4.39,9.46-9.24,13.34-14.54,3.88-5.29,7.06-11.03,9.22-16.93.39-.72,1.02-2.75.93-2.76,2.68-7.16,4.28-14.74,4.69-22.39,0,0,.05-.43.15-1.21.07-.78.27-1.93.3-3.35.03-1.43.05-3.14.03-5.07-.13-1.92-.34-4.04-.6-6.29l-6.01.88c.74,6.13.98,11.13,1.14,16.5Z" fill="#010101"/>
    </g>
  </g>
  <g>
    <path d="M270.55,44.41s-86.45,11.25-71.77,93.63c14.47,81.22,131.42,53.35,137.34,2.51,5.32-45.63-7.53-98.36-65.57-96.14ZM283.33,108.53c1.42,11.41-14.11,19.32-21.68,9.7-7.57-9.62-1.17-17.14-1.17-17.14,10.38-9.67,21.43-3.96,22.85,7.44Z" fill="#fff"/>
    <g>
      <path d="M270.55,44.41s-86.45,11.25-71.77,93.63c14.47,81.22,131.42,53.35,137.34,2.51,5.32-45.63-7.53-98.36-65.57-96.14ZM283.33,108.53c1.42,11.41-14.11,19.32-21.68,9.7-7.57-9.62-1.17-17.14-1.17-17.14,10.38-9.67,21.43-3.96,22.85,7.44Z" fill="none"/>
      <path d="M285.1,105.94c.79-.39-.32-1.37-.17-1.82h.08c-.45-.39-.56-.91-.64-1.47-.1-.55-.14-1.14-.7-1.44.08,0,.3-.09.44.11-.49-.62-1.19-1.39-.81-1.72-1.15-1.44-2.93-3.59-4.47-3.5l.15-.07c-.87.08-.75-.47-1.57-.54,0-.08-.04-.13-.02-.15-.45.08-.93-.13-1.39-.36-.48-.17-.94-.37-1.25-.34l.05-.33c-.24-.05-.48-.12-.72-.16l-.73-.06.53.15c-.18.44-.41.26-.76.03-.35-.22-.84-.56-1.37-.25-.49-.05-.99.44-1.42.89-.44.42-.8.95-1.28.79-.35.5.25-.76-.33-.31-.12-.47.25-.35,0-.7-.31.17-.61.1-.93.05-.31-.02-.64-.01-.99.28l-.15-.34c-.41.51-.96.52-1.42.62-.47.09-.92.16-1.09.61-.84.76-1.24-.64-1.84.63l-.66-.17c-.47.22.05.71-.55.82-.17-.29-.72.21-.64-.23-.64.2-1.03.76-1.46,1.3-.1.13-.22.27-.4.45-.16.15-.38.38-.55.61-.41.51-.69.8-1.11,1.09.31.66-.42,1.28-.12,1.75-.28-.08-.74,1.63-.89.47,0-.1.06-.24.15-.19l-.29-.26c-1.07.73-.33,1.94-.67,2.89.19-.27.26-.67.44-.34-.09.3-.2.6-.27.91l-.27-.26-.41,1.4.41-.15c-.29.65-.93.89-.44,1.71.28.36.55-.64.63.09-.14.45-.26,1.03-.37,1.66-.1.63-.09,1.29-.05,1.89.41-.2.42.13.6.41l-.35.12c.84,1.06-.67.67.09,1.77l.57.03c1.1.73-.49.85.91,1.57-.24-.41.65-.54.74.03l-.39.03c.22.24.4.26.44.48-.26-.07-.51.16-.23.53l-.55-.06,1.01.45c-.02.82,1.01,1.39.75,1.9,0,0,.61,1.33,1.33,1.25-.47-.02,0,.73-.47.81.55.08,1.64.69,1.75,1.33l-.1-.03c.29.38.62.67.97.9.36.21.74.38,1.1.53.75.28,1.45.51,2.14,1.06.08-.42.82.1.8-.5.87.01,1.51.44,2.11.69.59.21,1.11.29,1.45-.57.71-.06.84.45,1.22.52l-.17.1c.69-.09,1.13-.15,1.52-.22.39-.06.74-.1,1.24-.18.47-.26.35-1.05,1.21-1.09-.18.37.15.24.45.13-.18.11-.21.25.26.31.03-.11.1-.2.16-.28.01.02.03.03.04.07.48-.29.35-.35.1-.3,0-.05-.05-.1-.15-.16.68.21,1.41-.61,1.7-.15,1.43-.84,2.08-1.97,2.92-2.96.29.12.22.5-.02.84.22-.23.45-.45.67-.69.27.31-.27.53-.45.78.66-.1,1.01-.65,1.33-1.19.31-.57.61-1.14,1.25-1.49l-.08-.41.09-.03c-.13-.09-.15-.47-.09-.66.39.04.66.47,1.02-.1.58-.29.62-1.42.72-2.12-.21.31-.34.12-.38-.07.13-.29.5-.35.46-.64l.45.14c-.45-.03-.15-.98-.32-1.16.38-.09.16.58.36.74.19-.65.21-.83.26-.99.04-.16.09-.33.19-1-.22-.76-.46.05-.81-.35,0-.62-.25-1.2.03-1.87l.33.23c-.22-.87.97-1.55,1.12-2.24l-6.03.75c.04.66.08,1.26.01,1.92-.05.66-.12,1.4-.38,2.34-.54,1.02-1.2,1.47-1.78,1.91-.6.44-1.15.87-1.99,1.7-.93.6-1.91,1.31-2.94,1.72-.35.77-1.38.34-1.93.91l-.26-.35c-.2.19-.46.33-.66.11l.02-.1c-.32.27-.66.07-.82.18l.03-.1c-.12,0-.25,0-.37,0l.09-.13c-.56.18-1.13.05-1.52-.26l-.12.42c-.41-.42-.75-.51-1.12-.59-.33-.13-.71-.23-.9-.78l.08-.07c-.85.05-1.11-.49-1.28-1.02-.05-.13-.09-.26-.15-.38-.05-.14-.12-.28-.2-.41-.17-.26-.42-.47-.87-.63.22.08.14-.19.24-.23-.5-.48-.84-1.09-1.62-.69-.24-.45.03-.49.3-.69-.35.18-.66-.16-.83-.51l.2.11c-.18-.33-.38-.65-.55-.99-.21.15-.39.3-.59.45-.01-.65.76-.43.44-.92l-.56.18c-.16-.86.66-1.53.97-2.27-.05-1.46-.18-2.99.16-4.56.17-.77.45-1.55.86-2.16.22-.32.21-.28.58-.5.36-.22.72-.41,1.11-.56l.38.26c.22.24.23-.1.26-.42.03-.31.08-.64.3-.43l.13-.44c.15.04.39.03.32.25.29-.16.23-.25.33-.55l.5.15c.63-.13,1.08-.48,1.55-.87.49-.29,1-.66,1.63-.74.42.14.87.17,1.35.11.47.05.98-.04,1.5-.07,1.01-.03,2.13-.08,2.96.1.31.02.61.08.9.2.26.16.51.35.75.56.12.11.23.21.34.33l.27.42c.17.28.34.55.49.84.12.31.25.62.38.9l.2.42c.05.15.11.3.17.44.13.28.28.54.47.78.16.26.35.51.6.73-.05.11.22.21.29.19.16.34.24.72.34,1.09.09.37.22.73.27,1.11,0,0-.55.82-.33,1.66l6.03-.75c-.09-.89-.35-1.62-.94-2.25Z" fill="#010101"/>
      <path d="M282.09,46.98c.39.5,2.04.66,3.8.89,1.74.3,3.66.45,4.53.86l-.19.02c1.22.15,2.43.41,3.64.74,1.17.42,2.33.89,3.48,1.36,1.13.51,2.22,1.1,3.33,1.59,1.11.49,2.14,1.08,3.26,1.47-.19-.02-.4.14-1.35-.34.75.38,1.61.74,2.4,1.2.78.47,1.55.94,2.24,1.36,1.36.87,2.24,1.73,2.21,1.98,3.26,2.35,6.71,5.75,9.49,9.27.67.9,1.39,1.74,1.99,2.61.6.88,1.19,1.71,1.75,2.5.53.81,1.01,1.58,1.49,2.27.24.34.47.67.69.98.21.31.41.61.59.89l-.28-.26c.89,1.23,1.37,2.09,1.77,3.03.38.95.78,1.94,1.54,3.46,0,.2.05.44.01.41.41.73.83,1.66,1.24,2.68.39,1.03.73,2.18,1.07,3.3.36,1.11.59,2.25.86,3.24.27.99.5,1.86.69,2.51l-.29.24c.24,1.08.51,2.14.73,3.23l.62,3.26-.36-2.45c1.06.7.36,5.02,1.38,9.74.31,4.47,2.56,9.07,2.08,13.85.41,2.27-.67-2-.39,1.39-.48.1-.27-1.58-.67-.71.17,3.31-.6,5.39-.56,9.47l-.38.14c.16,2.66-.23,5.17-.61,7.39-.23,1.06-.42,2.07-.67,3-.19.95-.41,1.82-.49,2.68-.29,1.28-.68,2.07-.96,2.67-.33.58-.63.94-.9,1.3-.28.37-.54.74-.89,1.33-.33.6-.68,1.43-1.22,2.69-.48.53-1.02,1.03-1.54,1.52-.65.95-.79,1.36-.94,1.8-.17.43-.32.92-1.25,1.85-.07-.16-.64.44-1.09.9-.46.46-.84.76-.44.1-2.08,2.05-4.07,4.25-6.45,6.44-2.38,2.18-5.17,4.35-8.72,6.04-.55.72-1.76,1.48-2.92,2.19-1.18.68-2.32,1.33-2.8,1.81-.28-.08-7.25,3.32-3.43.94.33-.2.95-.47.95-.36l.33-.55c-4.32,1.25-7.32,3.57-11.62,4.82,1.3-.26,2.95-.89,1.92-.26-1.32.42-2.64.82-3.97,1.19.25-.18.5-.35.74-.53l-2.99.74-3.01.64c.3.07.61.12.91.18-3,.48-4.14.06-7.39,1.13-1.48.52,2.91.09-.23.68-2.02.2-4.55.29-7.2.35-2.66,0-5.44-.02-7.99-.16.47.44-.91.41-2.33.4l-.14-.38c-2.72.1-3.2-.21-3.66-.45-.46-.27-.91-.54-3.58-.72l-1.01.36c-2.45-.03-3.05-.43-3.72-.71-.34-.14-.68-.32-1.28-.46-.6-.15-1.47-.23-2.82-.39,2.05.55.74,1.08-1.75.17l.75-.15c-1.41-.35-1.91-.4-2.8-.78.89.08.59-.3-1.4-1.03.5.03.98.08,1.48.09-.66-.12-1.31-.28-1.97-.42-.66-.13-1.32-.29-1.97-.48-1.34-.8-3.13-1.66-4.67-2.53-1.55-.85-2.82-1.71-3.21-2.26,0,0-.08-.06-.23-.16-.15-.1-.37-.25-.62-.45-.51-.38-1.21-.9-1.94-1.44-.71-.57-1.47-1.16-2.15-1.64-.65-.51-1.22-.91-1.6-1.06.61.32.26-.16-.11-.66-.37-.5-.7-1.07-.21-.85-.73-.46-2.05-1.5-3.22-2.76-.62-.6-1.15-1.29-1.62-1.91-.47-.62-.85-1.2-1.04-1.68l.26.28c-2.03-3.1-3.7-5.78-5.18-8.5-.77-1.35-1.38-2.75-2.01-4.18-.54-1.47-1.11-2.97-1.44-4.63-.34.43-1.12-3.08-1.4-2.08-.57-1.68-.99-3.33-1.22-4.9-.3-1.56-.38-3.06-.51-4.4-.23-2.69-.62-4.76-1.51-5.98-.33-3.26.11-3.89.08-5.57l.15.77c-.1-.76-.09-1.45-.11-2.09-.01-.64-.03-1.22-.04-1.77-.02-1.09-.03-2.02-.05-2.91.03-1.76.22-3.32.39-5.56-.02-1.13-.13-1.8-.19-2.69-.06-.89-.03-2.01.38-4,.12,1.36.26-.3.67-1.76-.18.95-.14,1.26.54-.61-.03-.29.01-.72.06-1.13.03,0,.07-.08.09-.03.48-2.47.29-2.07-.03-.95-.03-.07-.12,0-.29.34.27-.6.44-1.37.75-2.13.28-.76.55-1.56.79-2.28.49-1.45.91-2.62,1.26-2.66.35-.87.69-1.71,1.01-2.53.34-.81.59-1.64.97-2.37.73-1.49,1.34-2.96,2.05-4.33.75-1.34,1.47-2.68,2.23-3.99.84-1.26,1.7-2.54,2.6-3.84.66-.38-.06.94-1.05,2.47l1.29-1.82c.43-.61.94-1.16,1.41-1.74.14.15-.23.67-.75,1.29-.52.62-1.08,1.41-1.47,1.98.46-.48.9-.98,1.32-1.5.46-.49.91-1,1.35-1.52.88-1.04,1.7-2.18,2.68-3.22,1.85-2.17,3.95-4.32,6.58-6.05l.82-1.05.33-.19c-.11-.11.83-1.2,1.59-1.76.93-.23.42.69,2.95-1.11,1.11-.55,2.57-1.48,4.07-2.56,1.56-.98,3.13-2.15,4.54-2.93-1.58.74-1.17.31-.56-.14,1.4-.72,2.34-.84,3.37-1.49l.34.36c-.75-.14,3.5-2.17,3.98-2.52.95-.03-2.12,1.22-2.35,1.65,2.84-1.33,3.59-1.56,4.3-1.89.72-.31,1.45-.59,4.38-1.7,3.05-1.43-.73-.22.66-1.14,2.77-1.07,5.48-2.23,8.87-2.82l-.96.59c4.15-1.35,7.44-.73,10.13-.93l-.78-6.02c-2.8.41-5.21.91-7.72,1.51-2.48.61-4.96,1.27-7.53,2.1-5.15,1.65-10.79,3.74-17.53,7.29-8.01,3.99-12.85,7.11-17.48,10.65-1.15.89-2.26,1.86-3.43,2.84-1.17.98-2.27,2.14-3.49,3.33-.62.58-1.2,1.25-1.8,1.94-.6.69-1.22,1.42-1.87,2.17-.66.74-1.23,1.62-1.89,2.48-.62.89-1.34,1.77-1.96,2.79-1.21,1.92-2.55,3.82-3.56,5.92-.53,1.04-1.1,2.06-1.6,3.12l-1.35,3.24-.67,1.62c-.2.55-.36,1.1-.54,1.66-.35,1.1-.7,2.2-1.05,3.3-.19.54-.33,1.1-.45,1.65-.13.55-.25,1.11-.38,1.65-.25,1.1-.5,2.19-.75,3.26-.02,1.06-.13,2.3-.3,3.64-.16,1.34-.44,2.78-.52,4.26-.12,1.48-.24,2.98-.33,4.42-.07,1.44.06,2.81.17,4.03l-.36,1.9c.12,1.69.47,3.63.38,5.33l-.11-.1c.23,1.24.36,2.57.45,3.74.17,1.16.31,2.16.47,2.77l-.12-.09.48,2.99-.22-.49c.84,4.27,1.9,8.7,2.99,12.56l.32-.45c1.04,4.15,2.27,6.85,3.57,9.35.33.63.65,1.25.98,1.88.35.62.71,1.26,1.08,1.92.35.67.74,1.36,1.18,2.09.44.73.83,1.54,1.35,2.37l-.15-.03c3.26,3.74,5.69,6.73,8.43,9.59,2.74,2.82,5.83,5.51,10.49,7.59-1.16-.52.36.46.22.51,2.06,1.12,4.26,2.12,6,2.73,1.74.6,3,.82,3.18.44,3.14,1.15,2.48,1.16,2.79,1.62.05-.17.78-.08,1.81.13,1.03.24,2.37.54,3.64.84l-1.2-.15c1.21.3,2.43.57,3.66.78,1.22.25,2.45.41,3.68.6l-1.32-.94c3.83.84.85,1.03,4.62,1.36l.02-.59c2.69.34,4.82.73,6.95,1.08,2.13.34,4.26.68,6.93.75,11.06-.41,22.32-3.29,32.57-7.79,10.27-4.51,19.6-10.61,27.13-17.82.32-.11.64-.24.95-.37.36.05,1.2-1.15,1.95-2.49.78-1.3,1.48-2.7,1.95-2.85.42-.71.78-1.45,1.14-2.18.48-.5,1.35-1.68.83-.56,1.17-1.95,1.15-2.04,1.71-3.6.49-.66.98-1.33,1.42-2.04,1.02-2.03,1.7-4.14,2.26-6.24.22-1.06.47-2.11.61-3.18.13-1.07.28-2.15.33-3.13.33-4.02.44-8.11.7-12.62.61-5.41.51-13.32-.55-21.25-1.08-7.94-3.21-15.84-5.39-21.39-1.59-3.88-3.32-7.87-5.36-11.84-2.03-3.98-4.48-7.89-7.4-11.5-2.91-3.61-6.32-6.91-10.1-9.6-3.81-2.66-7.98-4.65-12.17-5.94-.51-.27-1.97-.56-1.98-.48-5.04-1.69-10.27-2.73-15.52-3.24,0,0-.29-.08-.83-.16-.53-.09-1.31-.21-2.29-.35-1.96-.33-4.7-.41-7.81-.36l.23,6.07c2.13.04,4.07-.07,5.93-.07.93,0,1.84,0,2.76-.03l1.37-.06c.46,0,.91,0,1.38,0Z" fill="#010101"/>
    </g>
  </g>
  <g>
    <path d="M438.35,79.46c-20.88-1.78-6.54-30.39-45.5-25.07-32.06,4.37-44.89,52.87-16.54,98.95,28.72,46.67,119.44,39.66,134.98-30.13,14.34-64.42-10.65-72.83-29.54-72.66-33.1.3-19.58,30.94-43.4,28.91Z" fill="#fff"/>
    <path d="M451.88,77.59c.38-.03.91-.48,1.57-1.12.29-.34.61-.73.94-1.16.3-.43.59-.9.89-1.37,1.13-1.92,1.97-3.97,2.58-4.87l-.03.21c.94-2.67,2.28-5.1,3.87-7.16,1.58-2.08,3.38-3.66,5.14-5.21-.1.17-.07.4-.9,1.04,1.27-1.09,3-2.11,4.53-2.73.79-.26,1.46-.52,2.01-.6.54-.09.9-.09.99.01.25-.07.51-.14.76-.21.27-.05.54-.1.81-.15.55-.09,1.1-.22,1.67-.3,1.16-.12,2.35-.29,3.59-.3,2.46-.14,5.05-.04,7.44.2,4.82.47,8.92,1.83,11.44,2.88l-.39-.07c1.48.52,2.32,1.1,3.16,1.73.4.34.81.68,1.29,1.08.44.44.99.89,1.63,1.49.08.19.21.4.17.39,1.36,1.05,2.84,3.14,3.93,5.34.59,1.08.98,2.24,1.42,3.23.35,1.03.68,1.93.95,2.6l-.27.27c.65,2.25,1.21,4.54,1.53,6.9-.1-.88-.19-1.77-.36-2.64.27.18.45.61.55,1.23.09.63.12,1.45.16,2.39.05,1.9.03,4.32.39,6.93.02,4.86,1.73,10.1.72,15.25.13,2.51-.44-2.24-.55,1.47-.49.06-.09-1.75-.59-.85-.09,1.81-.39,3.27-.76,4.82-.35,1.55-.68,3.21-.94,5.44l-.4.11c-.15,2.93-.87,5.6-1.5,8.02-.68,2.41-1.42,4.47-1.57,6.42-.73,2.87-1.39,3.69-1.91,4.58-.27.44-.53.89-.81,1.61-.33.7-.7,1.64-1.14,3.12l-1.41,1.95c-1.26,2.26-.32,1.93-1.9,4.36-.1-.16-.57.62-.99,1.21-.45.57-.78.98-.46.2-.99,1.29-1.89,2.65-2.77,4.07-.99,1.34-1.97,2.74-3,4.19-1.1,1.39-2.32,2.77-3.62,4.2-1.4,1.32-2.91,2.69-4.65,3.93-.52.82-1.68,1.84-2.81,2.81-.55.5-1.15.91-1.65,1.31-.49.39-.9.75-1.12,1.04-.09-.02-.58.27-1.21.68-.32.2-.66.44-1.02.66-.37.2-.74.41-1.07.59-1.35.74-2.16,1.11-.22-.37.33-.25.97-.62.98-.5.1-.2.2-.41.29-.62-1.11.51-2.16,1.01-3.12,1.6-.97.58-1.87,1.21-2.84,1.74-.95.57-1.9,1.14-2.86,1.72-.98.57-2.05,1-3.17,1.46,1.37-.44,3.12-1.2,2.05-.48l-4.19,1.67c.26-.19.51-.43.76-.64-1.03.43-2.13.68-3.18,1.03-1.07.31-2.11.71-3.21.94.33.04.67.1,1,.12-1.61.35-2.74.41-3.89.6-1.14.22-2.33.41-4.09,1.03-1.59.62,3.16-.1-.23.69-4.38.59-10.98.99-16.56.67.52.43-.99.44-2.55.4l-.16-.38c-1.49.04-2.37,0-2.94-.08-.57-.09-.82-.25-1.08-.39-.51-.28-1-.58-3.93-.73-.37.12-.73.22-1.1.33-2.67-.14-3.35-.46-4.09-.77-.73-.36-1.51-.7-4.51-.95,1.14.26,1.35.53.93.62-.42.09-1.48.03-2.82-.54l.8-.11c-1.53-.44-2.09-.47-3.08-.88.48.06.65-.02.41-.21-.23-.2-.89-.42-1.97-.87.53.07,1.07.12,1.61.13-1.46-.26-2.87-.69-4.32-1.04-.38-.2-.78-.41-1.21-.63-.41-.24-.85-.48-1.29-.71-.89-.47-1.82-.93-2.69-1.37-1.68-.98-3.11-1.88-3.57-2.45,0,0-.1-.06-.26-.17-.17-.1-.41-.27-.69-.49-.56-.43-1.33-1-2.15-1.59-.41-.29-.84-.59-1.25-.88-.4-.31-.78-.62-1.14-.9-.73-.55-1.37-.98-1.77-1.15,1.32.7-1.59-2.02-.46-1.57-.78-.52-2.2-1.7-3.57-3-1.24-1.41-2.48-2.9-2.98-3.9.09.11.18.21.28.31-.55-.86-1.07-1.68-1.58-2.48-.51-.81-1.06-1.5-1.53-2.33-.94-1.6-1.97-3.05-2.81-4.58-.87-1.51-1.77-2.98-2.51-4.57-.38-.79-.76-1.59-1.13-2.41-.35-.83-.66-1.7-.97-2.58-.13.24-.53-.57-.92-1.31-.39-.74-.7-1.42-.79-.86-.81-1.79-1.51-3.53-1.97-5.22-.24-.84-.46-1.66-.68-2.44-.18-.79-.35-1.55-.51-2.26-.16-.72-.33-1.39-.49-2.02-.14-.64-.29-1.22-.46-1.76-.33-1.07-.78-1.93-1.32-2.54-.36-1.75-.46-2.81-.48-3.66,0-.85.07-1.49,0-2.4l.2.83c-.13-.82-.24-1.57-.35-2.26-.07-.69-.14-1.33-.21-1.92-.12-1.19-.24-2.2-.26-3.16-.04-.96-.09-1.87-.11-2.85.02-.98.03-2.02.06-3.25-.01-2.44-.89-2.91-.15-7.3.15,1.46.27-.34.59-1.96-.13,1.05-.07,1.38.5-.7-.04-.32-.04-.79.02-1.23.03-.01.07-.09.09-.04.5-2.69.3-2.25-.03-1.02-.03-.07-.12.02-.29.38.26-.67.49-1.5.72-2.35.27-.84.53-1.72.76-2.52.51-1.59,1.04-2.84,1.33-2.9,1.4-3.83,2.93-6.97,4.68-9.8,1.76-2.81,3.72-5.33,6.3-7.55.75-.28-.3.94-1.66,2.31,1.14-1.08,2.31-2.16,3.59-3.08.1.18-.41.62-1.09,1.14-.66.53-1.43,1.22-1.95,1.72,2.26-1.68,4.49-3.41,7.08-4.92,2.57-1.49,5.57-2.7,8.87-2.87.42-.2.89-.35,1.34-.51h.41c-.04-.15,1.47-.58,2.48-.71.99.3,0,.77,3.34.6.66.08,1.45.09,2.33.09.86.06,1.82.01,2.78.07,1.93.06,3.92.3,5.52.7-1.69-.54-1.1-.57-.31-.48,1.56.46,2.24,1.17,3.37,1.58l-.1.48c-.16-.34.78.04,1.77.64.49.32,1.01.66,1.39,1,.41.32.72.57.85.66.17.47-.27.02-.88-.43-.58-.5-1.36-.97-1.58-.99.3.23.58.44.83.62.23.21.44.4.63.57.39.33.66.65.89.89.47.48.69.81.94,1.11.25.3.47.63.87,1.21.4.58.93,1.44,1.74,2.92,2,3.08.09-.8,1.27.56.79,1.43,1.6,2.86,2.52,4.35.92,1.48,1.92,3.02,3.27,4.57-.4-.22-.77-.47-1.13-.74,3.55,3.92,7.31,5.97,10.88,6.58l.52-6.05c-2.39-.22-4.36-.88-5.95-2.03-.8-.59-1.51-1.34-2.2-2.22-.68-.89-1.32-1.97-1.97-3.14-1.32-2.36-2.55-5.27-4.73-8.36-1.09-1.53-2.43-3.09-4.11-4.47-1.67-1.39-3.7-2.51-5.88-3.32-2.55-1.01-4.94-1.53-7.1-1.79-1.09-.18-2.12-.24-3.11-.31-1-.09-1.94-.09-2.87-.1-.46,0-.91-.01-1.36-.02-.44.02-.88.03-1.31.05-.86.04-1.71.04-2.53.11-1.64.14-3.19.22-4.9.52-3.34.53-6.71,1.46-10.24,3.31-3.51,1.83-7.26,4.49-10.77,8.65-3.43,3.89-6.13,8.51-8.05,13.33-1.93,4.82-3.12,9.82-3.76,14.62,0,1.16-.06,2.52-.2,4-.05,1.48-.19,3.08-.24,4.71-.01,1.62-.09,3.28.03,4.85.04.79.09,1.56.16,2.3.08.74.2,1.44.32,2.1l-.18,2.1c.19.91.42,1.89.57,2.88.15.99.28,1.99.37,2.91l-.12-.1c.71,2.67,1.28,5.71,1.72,7.01l-.13-.09c.28,1.08.61,2.14.92,3.21l-.3-.51c1.55,4.54,3.21,9.16,4.83,13.18l.26-.5c.76,2.18,1.58,3.95,2.34,5.52.73,1.58,1.54,2.91,2.28,4.23.73,1.33,1.53,2.59,2.35,3.99.4.71.82,1.45,1.27,2.24.49.79,1.01,1.63,1.55,2.55l-.15-.04c.43.52.85,1.03,1.26,1.53.4.5.86.93,1.26,1.4.82.91,1.58,1.79,2.3,2.67.77.83,1.52,1.63,2.27,2.42.74.79,1.43,1.63,2.23,2.33,1.56,1.47,3.1,3.01,5.02,4.32.95.66,1.89,1.42,3,2,1.1.61,2.26,1.21,3.51,1.81-1.24-.6.39.5.25.54,1.15.55,2.32,1.11,3.42,1.64.56.25,1.09.52,1.62.73.53.19,1.04.37,1.51.54,1.9.64,3.24.95,3.43.57,3.45,1.19,2.73,1.21,3.08,1.68.05-.18.84-.05,1.95.23,1.13.21,2.6.55,3.98.89l-1.3-.19c2.63.72,5.33,1.1,8,1.56-.49-.3-.97-.66-1.45-.98,1.04.26,1.63.44,1.98.55.35.13.47.24.58.34.22.2.44.35,2.5.52v-.59c5.88.68,9.37,1.69,15.23,1.73,6.04-.38,12.19-1.39,18.11-3.26,5.93-1.84,11.66-4.36,17.01-7.44,1.32-.81,2.63-1.61,3.94-2.41,1.25-.89,2.5-1.77,3.74-2.66l.93-.66.88-.72,1.76-1.44,1.75-1.43,1.64-1.54,1.63-1.53c.55-.5,1.09-1.01,1.58-1.57,1.01-1.08,2.01-2.16,3-3.22.97-1.08,1.84-2.24,2.77-3.34.46-.56.91-1.11,1.37-1.66.41-.58.82-1.16,1.23-1.73l.91-.6c.37-.02,1.08-1.44,1.68-2.96.56-1.55,1.13-3.12,1.6-3.36.31-.83.7-1.61.94-2.46.4-.62,1.14-2,.74-.74,1-2.22.93-2.31,1.45-3.99.48-.74.84-1.53,1.27-2.3.86-2.24,1.69-4.41,2.17-6.63.55-2.2,1.1-4.38,1.43-6.54.39-2.16.77-4.34,1.11-6.6.36-2.26.73-4.58,1.12-7.02.62-2.91,1.14-6.52,1.48-10.51.27-4,.38-8.38.04-12.81-.35-4.43-1.13-8.91-2.43-12.99-1.28-4.08-3.14-7.73-5.2-10.49-2.93-3.83-6.82-7.27-11.46-9.45-4.61-2.22-9.74-3.32-14.8-3.69-1.27-.1-2.53-.16-3.82-.14h-1.92c-.64.04-1.29.09-1.94.14-1.29.06-2.6.31-3.9.51-1.3.3-2.6.58-3.87,1.05-2.54.88-5,2.21-7.08,3.96-2.09,1.74-3.75,3.86-5,6.01-.46.49-1.11,2.02-1.04,2.04-1.49,2.56-2.66,5.15-3.91,7.49-1.24,2.34-2.61,4.38-4.32,5.7,0,0-.22.11-.61.31-.18.12-.45.2-.73.31-.14.06-.29.12-.45.19-.17.06-.35.09-.54.15-1.49.44-3.78.68-6.69.45l-.52,6.05c2.62.23,5.16.12,7.57-.61,2.41-.71,4.61-2.13,6.19-3.98Z" fill="#010101"/>
  </g>
  <g>
    <path d="M538.29,119.79c-1.61,39.03,16,67.36,60.51,73.28,50.37,6.69,56.67-14.52,59.38-20.36,3.42-7.37.65-38.74-3.63-43.33-4.28-4.59-20.97-.89-22.02-16.59-.94-14.02,9.18-18.11,16.41-19.15s16.84-30.3,11.48-35.9c-5.37-5.6-38.42-25-66.33-16.27-27.01,8.45-53.98,34.29-55.8,78.33Z" fill="#fff"/>
    <path d="M541.82,107.5c.25-.2.45-.75.62-1.48.08-.37.16-.78.23-1.23.09-.44.19-.9.29-1.38.4-1.9.75-3.95,1.12-4.92l.02.21c.04-.34.08-.67.13-1.01.07-.33.16-.66.24-.98.18-.65.38-1.3.59-1.95.43-1.29.9-2.59,1.41-3.85.59-1.23,1.18-2.46,1.7-3.68.52-1.23.97-2.47,1.46-3.66-.03.21.13.41-.39,1.46.8-1.68,1.74-3.69,2.55-5.27.86-1.56,1.69-2.63,1.96-2.63.57-.95,1.17-1.95,1.79-2.98.7-.97,1.43-1.97,2.16-2.98,1.4-2.08,3.16-3.95,4.72-5.85.38-.48.8-.93,1.23-1.35.42-.43.83-.86,1.23-1.27.81-.83,1.56-1.67,2.3-2.42,1.54-1.43,2.86-2.74,3.82-3.83l-.21.36c1.1-1.23,1.98-1.83,2.87-2.49.9-.64,1.84-1.31,3.33-2.37.21-.05.44-.16.42-.11,2.64-2.55,9.08-5.1,11.64-6.39l.3.23c1.08-.49,2.21-.83,3.31-1.26,1.11-.4,2.22-.84,3.33-1.13l-1.26.32-1.26.41c.14-.29.55-.52,1.14-.73.6-.17,1.39-.3,2.29-.46.91-.14,1.97-.25,3.08-.44,1.13-.13,2.32-.38,3.57-.64,2.36-.22,4.76-.76,7.26-1.15,2.49-.4,5.08-.53,7.58.02,2.46-.06-2.21.37,1.42.59.04.49-1.71.04-.85.56,3.53.33,5.59,1.47,9.86,2.31l.07.41c2.82.44,5.34,1.42,7.57,2.41,2.24.99,4.21,1.95,6.06,2.45,2.73,1.08,3.48,1.8,4.27,2.45.79.67,1.63,1.27,4.43,2.48.59.54,1.16,1.1,1.73,1.65,1.05.73,1.51.85,1.98,1.02.47.16.99.37,1.99,1.3-.16.07.47.65.89,1.11.37.45.58.72.04.42l.18.21c0,.09.14.38.28.84.11.52.23,1.1.28,1.8.12,1.36.1,2.94-.05,4.59-.31,3.3-1.13,6.97-2.87,10.7-.02.96-.48,2.41-1.02,3.75-.53,1.35-1.12,2.59-1.22,3.29-.17.03-1.15,1.88-1.99,2.98-.42.55-.77.95-.88.97-.11.03.03-.26.53-1.21.17-.33.53-.89.6-.8l-.04-.64c-.72.86-1.35,1.69-1.93,2.35-.55.67-1.12,1.23-1.32,1.41-.02.02-.03.04-.04.07,0,.01-.02.01-.03.03v.03s-.03.01,0,.02h.06s-.01,0-.01,0h-.03s-.06.02-.06.02l-.47.11c-.62.14-1.25.31-1.87.49-1.26.35-2.53.79-3.88,1.25,1.62-.49,3.74-1.04,2.39-.42-1.66.45-3.31,1.04-4.89,1.87.28-.26.56-.54.86-.78-2.44,1.05-4.82,2.62-6.75,4.72.33-.23.73-.39,1.08-.57-.79.65-1.34,1.32-1.91,1.88-.54.59-.96,1.18-1.41,1.78-.41.62-.74,1.3-1.09,2.09-.27.81-.55,1.75-.68,2.88-.04,1.03.24.13.51-.49.15-.31.28-.55.29-.46.03.09-.13.5-.27,1.51-.14.63-.37,1.3-.45,2.01-.09.71-.19,1.45-.29,2.21-.05,1.51-.15,3.12.07,4.87.2,1.73.64,3.59,1.49,5.35.84,1.76,2.09,3.38,3.5,4.6-.24-.79,1.22.62,2.95,1.43l.02.43c1.7.74,2.67,1.07,3.29,1.33.62.27.88.45,1.14.65.5.37,1.12.84,4.2,1.33l1.15-.27c2.67.23,3.13.64,3.64,1,.25.18.48.37.78.53.14.08.26.15.38.18.05.01.31.14.66.64-.2-.43-.27-.55-.26-.7.01-.13.1-.17.24-.12.27.05.83.68,1.19,1.99-.18-.18-.37-.35-.56-.49.55,1.3.84,1.78,1.02,2.79-.43-.82-.6-.35-.03,1.84-.26-.46-.51-.93-.79-1.37.55,1.31,1.07,2.68,1.54,4.08.24,3.39,1.3,8.75.88,10.2,0,0,.1,1.84.21,3.89.12,2.05.25,4.29.52,5.13-.35-1.46-.47,2.56-.88,1.41.2.94.33,2.8.27,4.65-.06,1.85-.36,3.68-.8,4.48l.03-.35c-.11.43-.25.77-.37,1.08-.18.38-.35.76-.52,1.13-.2.45-.41.89-.6,1.33-.19.42-.37.83-.56,1.2-.18.38-.36.76-.54,1.13-.2.35-.39.7-.58,1.05-.35.72-.82,1.34-1.23,1.99-1.74,2.53-3.98,4.67-7.02,6.25.5.21-2.82,1.79-1.78,1.84-.77.5-1.63.81-2.43,1.18-.82.34-1.58.71-2.41.88-.81.2-1.6.4-2.35.58-.75.19-1.47.36-2.18.44-1.41.2-2.66.41-3.7.71-1.05.31-1.94.54-2.58,1.06-1.74.23-2.78.23-3.61.2-.83-.06-1.46-.22-2.37-.23l.83-.11c-6.56.41-8.51.13-13.41-.08-2.46-.09-2.93.66-7.33,0,1.47-.17-.35-.27-1.99-.49.52.06.88.04.83-.02-.05-.06-.5-.2-1.55-.47-.31.05-.79.04-1.23.02-.01-.03-.1-.06-.05-.09-1.37-.14-1.94-.19-2.01-.17-.07.03.35.16.98.27-.07.04.02.11.4.26-1.39-.4-3.33-.81-4.97-1.13-1.63-.39-2.95-.72-3.05-1.02-4-.95-7.39-1.89-10.58-2.94-3.16-1.1-6.12-2.3-9.15-3.92-.52-.63.99-.04,2.77.8l-2.13-1.12c-.71-.37-1.38-.81-2.08-1.21.13-.16.74.16,1.49.6.74.44,1.67.94,2.33,1.27-2.38-1.61-4.89-3.08-7.45-4.75-2.55-1.68-5.05-3.73-7.09-6.37l-1.17-.81c-.07-.11-.16-.22-.23-.33-.11.13-1.24-.9-1.92-1.64-.31-.96.67-.44-1.29-3.08-.57-1.19-1.62-2.7-2.65-4.36-1.04-1.66-2.09-3.44-2.85-4.99.7,1.72.28,1.26-.16.57-.72-1.52-.67-2.57-1.29-3.71l.39-.31c-.23.79-1.84-3.98-2.13-4.55.08-1.01.98,2.43,1.41,2.72-.56-1.57-.78-2.6-1.01-3.3-.21-.7-.31-1.11-.4-1.52-.18-.82-.45-1.61-1.07-4.92-.92-3.49-.35.73-1.03-.91-.61-3.14-1.24-6.25-1.17-9.95.12.38.25.77.39,1.15-.53-4.71.82-7.95,1.11-11.03l-6.07-.25c-.23,5.71-.11,10.97.58,16.82.14,1.47.42,2.96.65,4.52.31,1.55.58,3.16,1.02,4.81.8,3.33,1.88,6.92,3.52,10.77,1.8,4.59,3.72,8.17,5.66,11.23,1.95,3.05,3.88,5.6,6.02,8,4.35,4.67,9.41,9.17,18.77,13.46,8.85,4.26,19.07,6.49,28.31,7.5,2.23-.09,5.24.25,8.37.55,1.58.08,3.18.15,4.72.19,1.54.02,3,.1,4.32-.11l2.05.31c1.82-.26,3.92-.33,5.77-.39l-.11.12c1.35-.28,2.79-.45,4.07-.6.64-.05,1.23-.17,1.75-.28.52-.11.96-.21,1.29-.31l-.09.13,3.29-.69-.53.26c4.64-1.44,9.43-3.09,13.38-5.44l-.55-.19c4.25-2.34,6.63-4.89,8.57-7.44.45-.67.9-1.33,1.36-2,.41-.7.82-1.41,1.26-2.15.75-1.45,1.56-3.02,2.52-4.88.01.06.02.13.04.17.59-1.71.74-3.04.9-4.3.15-1.26.25-2.42.34-3.54.17-2.24.32-4.31.41-6.39.17-4.15.17-8.36-.96-13.6.28,1.31.16-.59.27-.5-.65-4.87-1.83-10.1-2.73-9.98-.41-1.77-.59-2.52-.59-2.89,0-.37.15-.37.23-.66-.18.07-.53-.67-1.11-1.8-.32-.58-.64-1.23-1.28-2.02-.64-.79-1.5-1.41-2.25-1.79.49.21,1,.48,1.5.85-1.5-1.22-3-1.66-4.35-2.06-1.37-.38-2.68-.63-3.95-.9l1.35,1.03c-2.02-.57-2.2-.83-2.4-1.05-.18-.23-.39-.37-2.23-.79l-.12.58c-2.63-.81-4.45-1.97-5.7-3.39-1.26-1.42-1.93-3.04-2.33-5.23-.3-1.12-.46-2.34-.48-3.63,0-.64-.07-1.3,0-1.93.07-.62.07-1.27.17-1.88.36-2.47,1.29-4.7,2.81-6.53.79-.89,1.67-1.73,2.73-2.4,1.02-.71,2.19-1.27,3.41-1.74,1.21-.49,2.52-.82,3.84-1.1l.5-.09.25-.05.12-.02.27-.07.89-.24c.28-.1.55-.25.81-.37.55-.26.89-.57,1.33-.87.35-.31.73-.63,1.03-.95,2.44-2.6,3.81-5.36,5.13-8.13,1.27-2.78,2.31-5.58,3.18-8.41.88-2.83,1.58-5.68,2.08-8.57.24-1.45.42-2.92.5-4.43.07-1.51.05-3.07-.31-4.78.06-.43.02-.92,0-1.4.08-.12-.03-.45-.25-.88-.18-.43-.65-1.01-1.22-1.58-1.86-1.55-4.42-2.55-4.7-3.23-.78-.42-1.56-.81-2.34-1.19-.55-.48-1.8-1.39-.63-.84-2.04-1.26-2.15-1.18-3.74-1.85-.69-.51-1.37-1.05-2.07-1.55-4.12-2.29-8.18-3.9-12.36-5.29-4.2-1.36-8.52-2.49-13.37-3.55-2.88-.8-6.5-1.45-10.53-1.72-4.03-.26-8.47-.08-12.87.71-2.2.37-4.38.96-6.5,1.63-2.06.74-4.04,1.5-5.95,2.28-1.86.9-3.68,1.69-5.33,2.58-1.62.93-3.15,1.81-4.55,2.61-7.57,4.96-15.39,10.89-22.01,18.27-.42.46-.85.9-1.25,1.37l-1.15,1.45-2.3,2.92c-1.46,1.99-2.74,4.11-4.08,6.17-1.15,2.16-2.29,4.32-3.3,6.5-.88,2.24-1.74,4.45-2.45,6.66-.27.55-.56,2.1-.48,2.11l-1.32,4.03c-.43,1.35-.69,2.74-1.05,4.11-.32,1.38-.68,2.74-.98,4.13l-.67,4.18s-.36,1.23-.84,3.29c-.34,2.07-.72,5-.95,8.33l6.07.25c.22-2.3.37-4.4.44-6.43.02-.51.03-1.01.05-1.51.04-.5.09-.99.13-1.48.08-.99.13-1.98.17-2.99Z" fill="#010101"/>
  </g>
  <g>
    <path d="M823.02,35.78c11.96,1.77,21.71,3.99,26.58,13.73,4.87,9.75,2.22,68.67.44,79.75s-7.53,72.22-17.72,77.09-54.49-2.22-57.6-7.53,9.51-33.39-7.97-35.89c-21.97-3.13-13.73,29.24-22.6,33.23-8.86,3.99-50.95.89-57.15-10.19-6.2-11.08-1.33-73.1,1.77-91.71s7.97-58.04,19.05-64.24c11.08-6.2,50.2-6.43,56.27,3.1,6.2,9.75-5.36,34.18,10.97,36.59,17.76,2.63,11.18-24.19,17.39-29.95,6.2-5.76,18.61-5.76,30.57-3.99Z" fill="#fff"/>
    <path d="M803.92,32.92c-.81-.33-3.77-.02-6.88,1.18-1.54.61-3.12,1.4-4.42,2.33-.67.42-1.22.97-1.75,1.37-.26.2-.56.56-.8.81-.27.27-.41.52-.59.73l.18-.39c-.81,1.25-1.19,2.45-1.53,3.59-.34,1.15-.55,2.25-.76,3.33-.4,2.16-.72,4.27-1.05,6.31-.68,4.06-1.39,7.98-2.57,11.02.05-.26-.07-.45.44-1.91-.38,1.18-.89,2.38-1.56,3.29-.66.93-1.45,1.56-2.27,1.92-.81.4-1.73.45-2.38.48-.7-.05-1.14-.12-1.21-.26-1.41-.08-2.83-.35-3.95-.9-1.14-.54-1.95-1.38-2.59-2.6-.65-1.2-1-2.82-1.2-4.53-.2-1.72-.23-3.54-.2-5.37.05-3.67.29-7.35.16-10.77-.14-3.41-.66-6.64-1.95-9.04l.41.63c-.66-1.38-1.39-2.46-2.26-3.43-.43-.41-.84-.8-1.25-1.14-.42-.3-.82-.62-1.23-.89-1.66-1.07-3.45-1.94-6.33-2.67-.29-.15-.68-.3-.61-.31-2.85-.56-6.88-1.26-10.8-1.66-3.91-.42-7.7-.57-9.95-.46l-.29-.33c-3.69.03-7.38.2-11.07.6,1.38-.11,2.76-.2,4.14-.26-.69.5-2.77.48-5.7.63-2.92.18-6.72.47-10.65,1.97-.94.27-1.88.61-2.8,1.06-.93.43-1.84.96-2.75,1.71-1.74,1.48-2.8,3.28-3.68,5.06-1.72,3.6-2.74,7.29-4.19,10.87-.74,3.63.34-3.31-1.04,2.04-.52.03.49-2.55-.31-1.31-1.4,5.25-2.95,8.44-4.06,15.03l-.42.19c-1.13,8.63-3.48,16-3.75,21.78-.54,4.42-1.05,5.84-1.51,7.32-.45,1.49-.91,2.96-1.24,7.69l-.97,3.54c-.56,3.96.27,2.91-.45,7.27-.29-.3-.81,5.53-.86,2.92-1.45,9.92-1.07,20.24-2.45,33.35.49,2.88-.04,9.5.42,11.65-.14.18-.18,3.5-.2,5.86-.02,2.36-.08,3.75-.43,0-.05-.64-.06-1.78.05-1.7l-.37-.89c-.34,3.78-.17,7.23.17,10.68.36,3.46.84,6.88,1.49,10.79-.33-2.35-.64-5.33-.17-3.36.31,2.38.64,4.75,1.46,7.32-.28-.5-.56-1.02-.77-1.5.09.46.23.94.4,1.44.16.49.28.96.54,1.5.25.53.43,1.06.8,1.57.33.51.67,1.05,1.06,1.45,1.51,1.74,3.2,2.95,4.87,3.92-.4-.39-.8-.76-1.19-1.16,2.38,1.64,4,2.49,5.74,3.34,1.74.82,3.62,1.47,6.54,1.98,2.64.41-4.62-1.79.71-.47,3.32,1.01,7.51,1.98,11.97,2.74,4.46.74,9.2,1.26,13.59,1.44-.81-.46,1.55-.35,3.99-.47l.29.37c4.69-.35,5.6-.34,6.5-.18.46.05.9.13,1.86.05.49-.06,1.08-.1,1.91-.29.41-.09.86-.18,1.42-.36.28-.09.55-.17.87-.28.33-.14.68-.28,1.05-.44.14-.09.35-.26.54-.41l.56-.48c.38-.31.64-.68.91-1.03.15-.15.29-.3.43-.44.11-.15.22-.29.33-.43.2-.28.41-.55.57-.81.27-.5.55-.97.73-1.37.17-.4.33-.76.48-1.09.12-.32.23-.6.32-.86.19-.5.35-.91.49-1.27.15-.36.28-.67.39-.97.49-1.24.95-2.68,1.18-7.23-.53,3.56-1.09,1.49-.2-2.75l.17,1.14c.33-2.37.34-3.16.74-4.65-.09,1.41.3.76,1.1-2.42-.05.75-.11,1.48-.12,2.25.26-2.09.65-4.1,1.29-5.92.59-.93,1.26-1.94,2.05-2.76.78-.83,1.72-1.42,2.71-1.82,1.98-.83,4.27-.67,5.13-.31,0,0,.15.02.41.05.27.02.64.07,1.03.17.2.04.43.09.67.14.22.07.44.15.68.23.25.06.47.17.69.29.22.11.48.2.67.35.86.51,1.55,1.25,2.08,2.06.51.83.88,1.69,1.14,2.16-.41-.82-.29-.04-.24.8.06.85,0,1.8-.28,1.09.38,1.13.68,3.67.52,6.44-.14,2.76-.61,5.67-1.07,7.33l.05-.65c-.29,1.55-.55,3.06-.77,4.59-.21,1.54-.41,3.05-.41,4.79.02.47,0,.86.07,1.39.03.21.06.64.13.94.08.32.18.64.28.95.37,1.26,1.14,2.37,2.19,3.14.45.46,1.06.76,1.41.97.42.26.75.38,1.13.57.74.36,1.42.59,2.12.86,2.74.96,5.34,1.61,8,2.25,2.64.6,5.34,1.22,8.19,1.87-.45-.5,5.56.74,4.15-.06,5.95.65,11.33,1.49,15.85,1.89,4.5.42,8.17.35,10.34-.63,2.78-.22,4.47-.36,5.89-.56.7-.09,1.35-.22,2.01-.37.34-.1.7-.22,1.06-.35.37-.14.94-.44,1.33-.73-.45.41-1.22.83-1.64,1.01.19-.08.36-.15.56-.25.23-.12.45-.25.67-.38.39-.27.77-.55,1.05-.83.62-.56,1.05-1.11,1.44-1.64.77-1.05,1.28-2.01,1.73-2.9.88-1.78,1.46-3.3,1.97-4.74,1.01-2.88,1.77-5.43,2.73-9.11.73-3.72.13-4.47,1.63-11.01-.11,2.19.38-.51.83-2.98-.25,1.59-.22,2.1.59-1.11-.01-.47.05-1.19.12-1.86.03-.02.07-.15.09-.08.6-4.15.37-3.45,0-1.54-.03-.1-.12.05-.31.62,1.16-4.22,1.87-11.96,2.48-12.4,1.7-12.48,2.05-21.42,3.31-31.81.21-.58.3-.24.31.63,0,.43-.02,1.01-.08,1.68-.06.62-.13,1.33-.2,2.07l.24-1.79c.08-.63.17-1.29.23-1.91.14-1.26.24-2.51.34-3.75.2.05.16,1.12.03,2.49-.06.68-.15,1.43-.25,2.18-.05.37-.1.74-.15,1.08-.04.32-.08.62-.11.89.23-.99.47-2.23.62-3.35.16-1.14.28-2.28.37-3.43.18-2.3.28-4.63.34-7.01.14-4.76.21-9.69.71-14.86l-.24-2.16.07-.62c-.17.03-.33-2.3-.33-3.84.38-1.45.81.13.9-5.01.43-4.05-.03-11.54-.34-16.86-.01,2.87-.22,1.95-.36.72-.06-2.57.25-4.06.02-6.04l.46-.27c-.37,1.03-.8-6.71-1.15-7.66.11-.75.27.24.44,1.51.15,1.26.31,2.79.45,3.11-.32-5.18-.55-6.5-.68-7.8-.1-.66-.17-1.31-.36-2.46-.12-.58-.19-1.27-.42-2.18-.11-.46-.19-.94-.38-1.52-.09-.29-.18-.59-.27-.9-.1-.32-.27-.68-.42-1.05-.18-.41-.36-.65-.52-.89-.16-.23-.29-.43-.39-.59-.22-.32-.36-.5-.44-.58-.16-.16-.1.07,0,.39.22.64.6,1.58-.26.47-1.31-2.2-3.05-4.12-5.11-5.72-2.06-1.61-4.43-2.89-7.06-4.05.6.13,1.21.24,1.82.39-3.47-1.38-6.39-2.33-9.03-3.22-2.64-.87-4.99-1.61-7.33-2.06l-.89,6.01c4.02.61,7.81,1.25,11.32,2.29,3.52,1.04,6.75,2.52,9.29,4.91,1.28,1.19,2.39,2.61,3.27,4.31.29.46.33.72.5,1.07.12.46.28.84.39,1.36.24.98.44,2.07.61,3.21.68,4.57.99,9.81,1.21,15.64.11,6.89-.02,12.53-.21,17.56-.19,5.02-.44,9.43-.71,13.86-.28,4.43-.57,8.89-.95,14.01-.19,2.55-.4,5.29-.69,8.2-.08.71-.16,1.44-.24,2.19-.11.77-.22,1.55-.33,2.36-.23,1.68-.43,3.39-.63,5.19-1.77,13.65-3.44,28.16-5.85,41.24-.28,3.15-1.15,7.43-2.26,11.75-1.11,4.31-2.49,8.66-3.73,11.81-.49.73-1.01,1.4-1.52,1.94-.24.43-.5.82-.74,1.08-.12.15-.22.22-.29.29-.05.02-.01.04-.12.08l-.32.14c-.88.37-2.11.63-3.28.68l.13-.12c-3.41.78-7.74.55-9.59.63l.16-.1c-1.52-.02-3.06-.09-4.59-.17l.8-.1c-6.62-.12-13.48-1.01-19.39-2.23l.42.52c-6.31-1.41-10.62-2.37-14.47-3.63-.96-.31-1.86-.67-2.66-1.06-.2-.09-.37-.21-.51-.28-.12-.06-.16-.1-.23-.15-.14-.1-.24-.25-.28-.42-.02-.09-.04-.17-.04-.26-.01-.1-.04-.36-.03-.6-.01-.46.03-1.02.09-1.6.12-1.17.34-2.47.62-3.91l.08.17c.25-3.7.73-7.12.99-10.42.26-3.3.41-6.53-.26-9.98-.35-1.71-.97-3.51-2.08-5.2-1.09-1.68-2.75-3.16-4.65-4.08-1.88-.93-4-1.38-5.95-1.45-1.99-.12-4.2-.02-6.48.8,2.28-.7-1.05,0-.9-.05-2.15.77-4.15,2.2-5.54,3.83-1.42,1.63-2.29,3.36-2.87,4.83-1.16,2.97-1.31,5.01-.94,5.17-.67,2.63-.9,3.68-1.1,4.16-.2.48-.33.38-.55.69.18.02.11,1.17-.07,2.8-.18,1.63-.47,3.74-.86,5.64.08-.59.14-1.2.21-1.8-.32,1.86-.69,3.68-1.25,5.28-.27.81-.63,1.51-1.01,2.07l-.3.39-.31.29c-.09.12-.22.15-.32.22-.1.07-.2.15-.4.21h.24s.18,0,.18,0h.38c.25-.08.54-.15.82-.29-.2.22-.42.33-.58.48-.19.09-.35.17-.5.23-.33.12-.66.17-.87.22-.48.05-.66,0-.84-.04-.17-.04-.33-.07-.79-.02-.46.07-1.21.19-2.57.41l.14.57c-4.11.42-7.47.15-10.74-.21-3.28-.38-6.5-.92-10.49-1.57-4.16-.51-8.34-1.17-12.43-2.14-2.05-.47-4.07-1.02-6.03-1.68-1.96-.66-3.87-1.41-5.57-2.34-1.7-.91-3.19-2.08-3.94-3.23-.2-.3-.34-.67-.52-1.03-.14-.44-.31-.85-.44-1.31l-.37-1.44-.3-1.51c-.72-4.1-1.04-8.44-1.24-12.74-.37-8.63-.2-17.27.2-25.7.41-8.43,1.09-16.67,2.06-24.56l.56-1.35c.68-.54-.09-8.81.67-9.94l.15-3.69c.24-1.01.66-3.15.56-1.32.48-3.36.39-3.43.59-5.88l.99-3.59c1.21-6.68,2.05-12.86,3.04-19.1.99-6.23,2.07-12.54,3.95-19.28.64-2,1.36-4.21,2.21-6.53.85-2.32,1.82-4.76,3.02-7.1.59-1.18,1.27-2.3,2.01-3.33.73-1.04,1.57-1.88,2.38-2.44l.3-.21.4-.21c.27-.14.54-.29.85-.41.59-.27,1.25-.5,1.9-.73,1.35-.43,2.75-.82,4.2-1.13,5.82-1.26,12.01-1.77,17.76-1.91,5.76-.12,11.14.19,15.56.88,1.55.23,3.11.51,4.63.92,1.52.39,3.02.89,4.36,1.56,1.34.65,2.56,1.5,3.22,2.43.73,1,1.18,2.44,1.42,3.95.49,3.07.28,6.5.05,9.99-.23,3.5-.57,7.11-.31,10.97.15,1.93.46,3.95,1.26,5.98.77,2.02,2.2,4.09,4.18,5.42,1.95,1.36,4.14,2.02,6.2,2.32,2.01.32,4.27.32,6.53-.35,2.28-.66,4.37-2.22,5.73-4,1.39-1.79,2.21-3.73,2.79-5.57,1.13-3.72,1.45-7.24,1.75-10.58.2-.87.28-3.07.21-3.06.28-1.96.62-3.87,1.17-5.46.28-.77.63-1.42.95-1.78.08-.14.5-.44.79-.69.3-.28.67-.49,1.02-.71,2.86-1.79,6.63-2.58,10.43-2.87,0,0,.43,0,1.22.02.79.04,1.94.06,3.39.16,2.88.17,6.93.62,11.56,1.28l.89-6.01c-7.1-1.07-13.16-1.37-19.5-.16Z" fill="#010101"/>
  </g>
</svg>