<?xml version="1.0" encoding="UTF-8"?>
<svg xmlns="http://www.w3.org/2000/svg" version="1.1" viewBox="0 0 921.3 297.9">
  <!-- Generator: Adobe Illustrator 29.3.1, SVG Export Plug-In . SVG Version: 2.1.0 Build 151)  -->
  <defs>
    <style>
      .st0 {
        fill: none;
      }

      .st1 {
        fill: #231f20;
      }

      .st2 {
        fill: #cdc579;
      }

      .st3 {
        fill: #fff;
      }

      .st4 {
        display: none;
      }

      .st5 {
        fill: #f26622;
      }
    </style>
  </defs>
  <g id="Layer_13" class="st4">
    <g>
      <g>
        <path class="st2" d="M115.3,279.4c-12.9,0-24.7-3.8-36.9-11.8-25.1-16.5-42.9-87.7-36.6-146.5,5.3-49.1,48.1-71.2,72.5-76.6,6-1.3,14.4-2.1,23-2.1,14.5,0,35.7,2,54.6,11.8,21.2,10.9,33.6,28.4,37.1,52,4.1,27.9-5.9,54-28.8,75.5-12.1,11.4-24.8,18.5-31.3,21.8,2.5,9.5,7.3,31.5,4.2,48.1-2.7,14.1-34.4,25.5-46.8,27-4.1.5-7.7.8-11.1.8h0ZM144.4,122.8c.5,1.4,1.1,2.9,1.5,4.2.4,1.2.8,2.6,1.2,4,3.1-2.1,5.5-4.6,5-6.8-.3-1.3-2.7-1.6-4.6-1.6s-1.9,0-3,.2Z"/>
        <path class="st2" d="M137.4,47.9c31.1,0,79.1,10,86.2,59.1,9.3,63.8-61.1,93.5-61.1,93.5,0,0,9.2,29.8,5.3,50.1-1.8,9.3-27.9,20.8-42.1,22.6-3.5.4-6.9.7-10.4.7-10.6,0-21.2-2.6-33.9-10.9-22.5-14.8-40.3-83.7-34.1-141.3,5.1-47.7,47.8-67.3,68.2-71.8,4.7-1,12.5-1.9,21.9-1.9M145.3,137.9c.4,0,.9,0,1.3-.3,4.6-2.4,12.5-7.6,10.8-14.7-1.1-4.6-5.5-5.8-10-5.8-2.7,0-5.4.4-7.3.9-1.7.4-2.6,2.1-2,3.7.8,2.1,1.9,4.9,2.6,6.9.7,2.2,1.4,5,2,7.2.3,1.3,1.5,2.1,2.7,2.1M137.4,36.9c-9,0-17.8.8-24.2,2.2-25.9,5.6-71.2,29.1-76.8,81.3-3.1,28.3-.7,61.3,6.5,90.5,4.4,17.8,14.4,49.3,32.5,61.2,13.2,8.7,25.9,12.7,39.9,12.7s7.5-.3,11.8-.8c8.3-1,19.6-4.7,29.3-9.5,13.5-6.7,20.8-13.9,22.3-21.9,2.9-15.5-.6-35-3.2-46.3,7.3-4,18.2-10.8,28.7-20.6,24.3-22.7,34.8-50.5,30.4-80.3-3.7-25.1-17.5-44.5-40-56.1-19.9-10.2-42-12.4-57.1-12.4h0Z"/>
      </g>
      <g>
        <path class="st2" d="M304.8,238.9c-36.6,0-62.2-20.8-68.4-55.8-4.5-25.3-.4-46.8,12.2-64,22.2-30.3,62.6-35.9,64.3-36.1.2,0,.3,0,.5,0,1.2,0,2.5,0,3.7,0,20.6,0,37.1,6.7,48.9,20.1,15.8,17.8,22.6,47.8,18.6,82.3-3.7,32-44.3,53.6-79.8,53.6h0ZM309,153.1c-1.3.4-3.5,1.5-3.4,4.7,0,2.5,3.7,2.5,3.7,2.5.6,0,2.5-.1,3.4-1.6,1.2-2,1.2-3.6.8-4.4-.6-1.1-2.7-1.2-3.5-1.2s-.6,0-1,0Z"/>
        <path class="st2" d="M317.1,88.5c55.1,0,67.3,51.5,62.1,96.2-3.2,27.8-39.6,48.7-74.4,48.7s-56.4-14.4-63-51.2c-14.7-82.4,71.8-93.6,71.8-93.6,1.2,0,2.3,0,3.5,0M309.3,165.8c3.2,0,6.3-1.3,8.1-4.2,4-6.6,1.6-14-7.4-14s-1.2,0-1.9.1c0,0-8.2,1.7-8,10.3.1,5.1,4.7,7.8,9.2,7.8M317.1,77.5c-1.3,0-2.6,0-3.9,0-.3,0-.7,0-1,0-1.8.2-44.4,6.1-68,38.3-13.5,18.4-18,41.4-13.2,68.2,3.5,19.9,13.1,35.9,27.5,46.4,12.6,9.1,28.6,13.9,46.3,13.9s39-5.7,54.8-15.6c17.7-11.1,28.5-26.3,30.4-42.8,1.9-16.1,1.5-32-1.2-45.8-3.2-16.7-9.5-30.4-18.8-40.8-12.9-14.5-30.8-21.9-53-21.9h0Z"/>
      </g>
      <g>
        <path class="st2" d="M478.1,232.7c-27.3,0-51-12.1-63.5-32.3-17.4-28.3-21.4-60.1-10.5-83.2,6.5-13.7,17.5-22.3,31-24.1,3.2-.4,6.3-.7,9.1-.7,20.9,0,27.4,12.1,31.7,20,2.9,5.4,4.1,7,6.3,7.2.3,0,.6,0,.9,0,4.7,0,6.2-2.3,9.7-9.2,4.3-8.9,10.3-21,31.9-21.2h.6c13.1,0,23.1,4.1,29.6,12.3,10.4,12.9,11.9,34.8,4.7,67-4.5,20.2-15.3,36.9-31.3,48.4-14.2,10.2-32,15.8-50.2,15.8Z"/>
        <path class="st2" d="M525.3,94.7c18.8,0,43.2,8.9,29,72.7-9,40.5-43.3,59.9-76.2,59.9s-46.7-10.1-58.8-29.7c-28.4-46.1-15.5-94.6,16.5-98.9,3.1-.4,5.9-.6,8.4-.6,29.5,0,23.8,26.4,37.7,27.2.4,0,.8,0,1.2,0,19.6,0,9.2-30.2,41.6-30.5.2,0,.4,0,.5,0M525.3,83.7c-.2,0-.4,0-.6,0-25,.2-32.4,15.3-36.8,24.3-1.2,2.4-2.3,4.8-3.3,5.8-.2.2-.3.3-1.2.3-.7-1-1.8-2.9-2.5-4.3-4.6-8.6-12.4-22.9-36.5-22.9-3.1,0-6.4.2-9.9.7-15.4,2.1-27.9,11.8-35.2,27.2-11.7,24.7-7.6,58.6,10.8,88.4,13.5,21.9,39,35,68.2,35s38.3-6,53.4-16.8c17.1-12.3,28.7-30.1,33.5-51.7,7.6-33.9,5.7-57.4-5.8-71.7-7.7-9.5-19.1-14.4-33.9-14.4h0Z"/>
      </g>
      <g>
        <path class="st2" d="M659.8,244c-5.7,0-12-.5-18.7-1.3-44-5.8-67.1-33.9-65.3-79,2-48.3,32.1-74.7,59.6-83.3,5.2-1.6,10.9-2.5,16.9-2.5,25,0,49.5,14.4,55,20.2,1.8,1.9,4.1,5.8,3,17.2-.6,6.4-2.2,13.8-4.3,19.8-3.2,9.3-6.9,13.9-11.6,14.6-9.6,1.4-13.3,3.4-13.5,7.4,1.3.7,5.2.9,7.3,1.1,5,.3,10.2.7,13.4,4.1,3,3.2,5.1,12.6,6.1,27.8.4,6.7,1.2,23-1.7,29.1-.1.3-.3.6-.4.9-2.9,6.5-10.4,23.9-46,23.9s0,0,0,0Z"/>
        <path class="st2" d="M652.4,83.4c23.6,0,46.6,13.9,51,18.5,5.4,5.6-2.4,41.3-9.7,42.4-7.2,1-17.8,2.9-18.2,12.7-.4,9.8,17.9,4.5,22.2,9.1s6.8,43.5,3.4,50.8c-2.4,5.1-7.4,21.7-41.4,21.7s-11.2-.4-17.9-1.3c-44.5-5.9-62.1-34.2-60.5-73.3,1.8-44,28.8-69.9,55.8-78.3,5-1.6,10.2-2.2,15.3-2.2M652.4,72.4c-6.5,0-12.8.9-18.6,2.7-16.5,5.2-31.7,15.6-42.7,29.5-12.7,16-19.9,36.3-20.8,58.9-.9,22.9,4.2,41.8,15.2,56.2,12,15.6,30.5,25.2,54.8,28.4,6.9.9,13.5,1.4,19.4,1.4,39.2,0,48.1-20.5,51-27.2.1-.3.2-.6.4-.8,3.1-6.7,2.9-21,2.2-31.8-1.7-24.8-5.8-29.3-7.5-31.1-2-2.2-4.5-3.5-7.1-4.3,6.9-2.9,10.5-11.1,12.6-17.3,2.2-6.5,3.9-14.2,4.6-21.1,1-10.4-.4-17.2-4.5-21.5-6.2-6.4-31.9-21.9-59-21.9h0Z"/>
      </g>
      <g>
        <path class="st2" d="M863.5,257.6c-8.4,0-19.3-1.2-29.4-3.2-18.1-3.6-20.1-7.1-21.1-8.7-1.9-3.2-1.6-7.7-1.3-14,.4-7.2.9-18-3.5-19.4-.7-.2-1.3-.3-1.8-.3-3.5,0-5.6,8.7-7.1,15-2,8.1-3.8,15.7-9.7,18.3-3.2,1.4-8.5,2.1-15.8,2.1-13.9,0-41.9-3.1-48.4-14.7-7.7-13.8-1.3-80.5,1.1-95.3.4-2.1.7-4.6,1.2-7.2,4.7-29.6,9.4-54.7,20.6-60.9,8.4-4.7,24.6-5.1,29.4-5.1,10.4,0,28.6,1.3,34.2,10,3.4,5.3,3.3,13.4,3.3,22,0,6.6-.1,17.6,3,18,.2,0,.4,0,.5,0,3.7,0,5.7-10.9,7-17.4,1.4-7.7,2.6-13.7,6.2-17.1,4.6-4.3,11.9-6.5,21.6-6.5s8.6.4,13.5,1.1c12.7,1.9,24.6,4.6,30.7,16.7,6.1,12.1,2.5,73.5,1,83.1-.3,1.8-.7,5-1.2,9-6.3,49.9-11.2,68.2-19.6,72.2-3.1,1.5-7.7,2.2-14.3,2.2Z"/>
        <path class="st2" d="M777.6,69.7c13.1,0,26.3,2.3,29.6,7.5,6.2,9.7-3.1,40.8,10.2,42.5.4,0,.9,0,1.3,0,13.3,0,10.9-30.4,16.9-36,4-3.7,10.5-5,17.9-5,4.1,0,8.4.4,12.7,1,12,1.8,21.7,4,26.6,13.7,4.9,9.7,2.2,68.7.4,79.7s-7.5,72.2-17.7,77.1c-2.4,1.1-6.7,1.6-11.9,1.6-16.9,0-43.3-5.1-45.7-9.2-3.1-5.3,4.9-31.9-8-35.9-1.3-.4-2.4-.6-3.5-.6-13.5,0-10.9,30.1-19.1,33.8-2.4,1.1-7.4,1.7-13.5,1.7-15.9,0-39.2-3.8-43.6-11.9-6.2-11.1-1.3-73.1,1.8-91.7,3.1-18.6,8-58,19.1-64.2,5-2.8,15.8-4.4,26.7-4.4M777.6,58.7c-6.5,0-22.7.6-32.1,5.8-13.4,7.5-18.3,32.7-23.4,64.9-.4,2.6-.8,5-1.1,7.1-1.6,9.5-3.6,29.7-4.5,50-1.7,38.8,2.3,45.9,4,48.9,3.7,6.6,11.7,11.2,24.6,14.3,8.7,2,19.1,3.2,28.6,3.2s16.6-2,18-2.6c8.4-3.8,10.6-13.1,12.8-22.1.4-1.8,1.1-4.5,1.8-6.8.2,3.4,0,7.7-.1,10-.4,6.9-.6,12.4,2.1,17,2.6,4.4,7.7,8,24.8,11.4,10.3,2,21.7,3.3,30.4,3.3s12.8-.9,16.6-2.7c10.7-5.1,16-23,22.7-76.4.5-3.9.9-7.2,1.2-8.8,1.1-6.7,2.1-25.5,2.4-41.9.6-35.6-2.5-41.8-3.9-44.5-7.9-15.7-24.1-18.1-34.8-19.7-5.2-.8-10-1.2-14.3-1.2-11.3,0-19.6,2.6-25.4,8-4.5,4.2-6,10.5-7.4,17.8,0-8.4-.3-16.3-4.2-22.3-6.6-10.4-24.8-12.6-38.9-12.6h0Z"/>
      </g>
    </g>
  </g>
  <g id="Layer_2">
    <g>
      <g>
        <path class="st3" d="M105.2,273.9c-14.3,0-27.1-4.1-40.5-12.9-18.3-12.1-28.5-43.9-32.9-61.8-7.2-29.3-9.6-62.4-6.6-90.9C31,55.6,76.8,31.9,102.9,26.2c6.4-1.4,15.3-2.2,24.4-2.2,55.1,0,91.8,25.9,98.1,69.4,4.4,30.1-6.2,58.2-30.8,81.2-10.2,9.6-20.8,16.3-28.2,20.4,2.7,11.5,6,30.5,3,46-3.5,18.5-38.9,30.6-52.4,32.3-4.3.5-8.2.8-11.9.8Z"/>
        <path class="st3" d="M127.3,36c31.1,0,79.1,10,86.2,59.1,9.3,63.8-61.1,93.5-61.1,93.5,0,0,9.2,29.8,5.3,50.1-1.8,9.3-27.9,20.8-42.1,22.6-3.5.4-6.9.7-10.4.7-10.6,0-21.2-2.6-33.9-10.9-22.5-14.8-40.3-83.7-34.1-141.3,5.1-47.7,47.8-67.3,68.2-71.8,4.7-1,12.5-1.9,21.9-1.9M135.2,126c.4,0,.9,0,1.3-.3,4.6-2.4,12.5-7.6,10.8-14.7-1.1-4.6-5.5-5.8-10-5.8-2.7,0-5.4.4-7.3.9-1.7.4-2.6,2.1-2,3.7.8,2.1,1.9,4.9,2.6,6.9.7,2.2,1.4,5,2,7.2.3,1.3,1.5,2.1,2.7,2.1M127.3,12c-9.9,0-19.7.9-27,2.5C71.1,20.8,19.8,47.5,13.4,107.1c-3.2,29.8-.7,64.4,6.8,95,5.9,23.9,17.3,55.3,37.9,68.9,15.4,10.1,30.4,14.9,47.1,14.9s8.5-.3,13.4-.9c9.9-1.2,22.4-5.3,33.5-10.8,17.3-8.7,26.9-18.8,29.2-31.1,2.6-13.9.9-30-1.3-42.2,6.9-4.3,15-10.2,22.9-17.6,11.9-11.1,20.9-23.5,26.9-36.8,7.8-17.2,10.3-35.7,7.5-54.8-4.3-29.5-20.5-52.2-46.9-65.8-22.2-11.4-46.5-13.8-63.1-13.8h0Z"/>
      </g>
      <g>
        <path class="st3" d="M294.7,233.4c-17.9,0-34.1-4.9-46.9-14.1-14.7-10.6-24.3-26.9-27.9-47-4.8-27.1-.3-50.3,13.4-68.9,23.8-32.5,66.9-38.5,68.7-38.7.4,0,.7,0,1.1,0,1.3,0,2.7,0,4,0,22.6,0,40.6,7.5,53.8,22.2,10,11.3,26,37.6,20.2,87.4-2,16.8-12.9,32.2-30.9,43.5-15.9,10-36.1,15.8-55.4,15.8h0Z"/>
        <path class="st3" d="M307,76.5c55.1,0,67.3,51.5,62.1,96.2-3.2,27.8-39.6,48.7-74.4,48.7s-56.4-14.4-63-51.2c-14.7-82.4,71.8-93.6,71.8-93.6,1.2,0,2.3,0,3.5,0M299.2,153.9c3.2,0,6.3-1.3,8.1-4.2,4-6.6,1.6-14-7.4-14-.6,0-1.2,0-1.9.1,0,0-8.2,1.7-8,10.3.1,5.1,4.7,7.8,9.2,7.8M307,52.5c-1.5,0-2.9,0-4.4,0-.7,0-1.5,0-2.2.2-1.3.2-13.2,1.8-28,7.6-20.6,8-37.5,20.5-48.8,35.9-7.4,10.1-12.6,21.6-15.3,34.1-2.9,13.5-3,28.3-.2,44,4.1,23.3,15.5,42.2,32.7,54.6,14.8,10.7,33.4,16.4,53.9,16.4s43.9-6.4,61.8-17.6c21.1-13.3,34.1-31.9,36.4-52.3,2-17.4,1.6-34.6-1.3-49.7-3.6-19-11-34.8-21.8-47-15.3-17.2-37-26.3-62.7-26.3h0Z"/>
      </g>
      <g>
        <path class="st3" d="M468.1,227.2c-29.6,0-55.4-13.2-69-35.4-18.5-30.1-22.7-64.3-10.8-89.4,7.3-15.5,20.5-25.6,36-27.8,3.5-.5,6.9-.7,10-.7,24.8,0,33,15.3,37.4,23.5.7,1.2,1.5,2.8,2.1,3.7,0,0,0,0,0,0,.8-.8,2.2-3.6,3.1-5.5,4.5-9.2,12.1-24.6,37.7-24.9h.7c15.2,0,26.8,5,34.7,14.8,11.7,14.5,13.6,38.3,6,72.5-10.6,47.8-51.8,69.2-87.9,69.2Z"/>
        <path class="st3" d="M515.2,82.7c18.8,0,43.2,8.9,29,72.7-9,40.5-43.3,59.9-76.2,59.9s-46.7-10.1-58.8-29.7c-28.4-46.1-15.5-94.6,16.5-98.9,3.1-.4,5.9-.6,8.4-.6,29.5,0,23.8,26.4,37.7,27.2.4,0,.8,0,1.2,0,19.6,0,9.2-30.2,41.6-30.5.2,0,.4,0,.5,0M515.2,58.7c-.3,0-.5,0-.8,0-13.9.1-25.5,4.1-34.4,11.9-2.8,2.4-5.1,5-6.9,7.6-7.3-8.2-19.1-16.3-39-16.3-3.7,0-7.6.3-11.6.8-19.6,2.7-36.1,15.3-45.2,34.5-13.5,28.6-9.2,67.3,11.5,100.8,15.9,25.8,45.5,41.1,79.2,41.1s43.7-6.8,61-19.2c19.8-14.2,33.1-34.7,38.6-59.4,8.5-38,5.7-65-8.4-82.6-7-8.8-20.4-19.3-44.1-19.3h0Z"/>
      </g>
      <g>
        <path class="st3" d="M649.7,238.5c-6,0-12.6-.5-19.5-1.4-24.6-3.3-43.3-13-55.5-28.8-11.2-14.6-16.4-33.7-15.4-56.9.9-22.8,8.2-43.3,21-59.5,11.1-14,26.4-24.6,43.2-29.8,5.9-1.8,12.2-2.8,18.9-2.8,27.4,0,53.4,15.7,59.7,22.2,4.3,4.5,5.8,11.6,4.8,22.3-.7,7-2.4,14.8-4.6,21.3-2,5.8-5.2,13.2-11.1,16.9,1.9.9,3.8,2.1,5.4,3.8,2,2.1,6.1,6.6,7.8,31.8.7,10.9.9,25.4-2.3,32.3-.1.2-.2.5-.3.8-3,6.9-12.1,27.8-52,27.8h0Z"/>
        <path class="st3" d="M642.3,71.4c23.6,0,46.6,13.9,51,18.5,5.4,5.6-2.4,41.3-9.7,42.4-7.2,1-17.8,2.9-18.2,12.7-.4,9.8,17.9,4.5,22.2,9.1,4.3,4.6,6.8,43.5,3.4,50.8-2.4,5.1-7.4,21.7-41.4,21.7s-11.2-.4-17.9-1.3c-44.5-5.9-62.1-34.2-60.5-73.3,1.8-44,28.8-69.9,55.8-78.3,5-1.6,10.2-2.2,15.3-2.2M642.3,47.4c-7.9,0-15.4,1.1-22.5,3.3-19,5.9-36.4,17.9-49,33.8-14.4,18.2-22.6,41.1-23.6,66.5-1.1,26.1,5,47.8,17.9,64.7,14.2,18.4,35.5,29.7,63.4,33.4,7.5,1,14.6,1.5,21.1,1.5,19,0,34.4-4.3,45.8-12.8,11-8.2,15.3-18,17.1-22.2,0-.2.2-.4.2-.5,1.4-3,5.2-11.1,3.4-38.1-1.4-21.4-4.7-30.5-8.2-35.6,2-3.3,3.9-7.4,5.5-12.1,2.6-7.4,4.5-16.2,5.2-24.1.9-9.1,1-22.3-8.1-31.7-8.7-9-37.6-25.9-68.4-25.9h0Z"/>
      </g>
      <g>
        <path class="st3" d="M853.4,252.1c-8.8,0-20.2-1.2-30.6-3.3-17.5-3.5-22.7-7.1-25.4-11.8-2.8-4.9-2.6-10.5-2.2-17.6,0-.6,0-1.3,0-2-2.1,8.6-4.6,18-13.2,21.8-1.5.7-6,2.7-18.4,2.7-9.5,0-20.1-1.2-28.8-3.2-13.2-3.1-21.5-7.9-25.3-14.8-1.7-3.1-5.8-10.4-4.1-49.4.9-20.4,2.9-40.6,4.5-50.1.4-2.1.7-4.5,1.1-7.1,6-38,11.3-58.6,23.9-65.6,9.6-5.4,26-5.9,32.6-5.9,14.3,0,32.8,2.3,39.7,13.1,2.7,4.3,3.8,9.4,4.1,14.9,1.2-4.2,3-7.8,5.9-10.6,5.9-5.5,14.7-8.2,26.1-8.2s9.2.4,14.4,1.2c10.9,1.6,27.5,4.1,35.6,20.2,1.4,2.7,4.6,9.1,4,44.9-.3,16.8-1.3,35.3-2.4,42.1-.3,1.6-.7,5-1.2,8.8-6.8,54.5-12.1,71.9-23.2,77.2-4,1.9-9.4,2.8-17.1,2.8Z"/>
        <path class="st3" d="M767.5,57.8c13.1,0,26.3,2.3,29.6,7.5,6.2,9.7-3.1,40.8,10.2,42.5.4,0,.9,0,1.3,0,13.3,0,10.9-30.4,16.9-36,4-3.7,10.5-5,17.9-5,4.1,0,8.4.4,12.7,1,12,1.8,21.7,4,26.6,13.7,4.9,9.7,2.2,68.7.4,79.7s-7.5,72.2-17.7,77.1c-2.4,1.1-6.7,1.6-11.9,1.6-16.9,0-43.3-5.1-45.7-9.2-3.1-5.3,4.9-31.9-8-35.9-1.3-.4-2.4-.6-3.5-.6-13.5,0-10.9,30.1-19.1,33.8-2.4,1.1-7.4,1.7-13.5,1.7-15.9,0-39.2-3.8-43.6-11.9-6.2-11.1-1.3-73.1,1.8-91.7,3.1-18.6,8-58,19.1-64.2,5-2.8,15.8-4.4,26.7-4.4M767.5,33.8c-9.4,0-26.8,1-38.4,7.5-18.5,10.4-24.1,37.3-29.9,74.2-.4,2.6-.8,5-1.1,7-1.6,9.9-3.8,30.7-4.7,51.6-1.7,39.2,2,49.3,5.6,55.8,5.6,9.9,16.4,16.7,33,20.6,9.6,2.3,21.1,3.6,31.6,3.6s19.8-2.2,23.4-3.8c1.3-.6,2.6-1.3,3.8-2.1,6.5,6.7,16.4,9.9,29.7,12.5,11.1,2.2,23.4,3.5,32.9,3.5s16.6-1.3,22.3-4c13.6-6.5,19.2-21.9,23.7-44.7,2.9-14.7,5-31,6.3-41.8.4-3.6.9-7,1.1-8.4,1.2-7.4,2.3-26.2,2.6-43.8.6-35.8-2.4-44.8-5.2-50.5-10.9-21.8-32.8-25-44.5-26.7-5.8-.9-11.3-1.3-16.2-1.3-11.2,0-20.5,2.3-28,6.7-8.5-10.5-24.6-15.9-47.8-15.9h0Z"/>
      </g>
    </g>
  </g>
  <g id="Layer_3">
    <g>
      <g>
        <path class="st5" d="M213.6,95.1c-9.3-63.8-87.7-61.6-108.1-57.2s-63.1,24.1-68.2,71.8c-6.2,57.6,11.6,126.5,34.1,141.3,16.8,11.1,30.1,12,44.3,10.2,14.2-1.8,40.3-13.3,42.1-22.6,3.9-20.2-5.3-50.1-5.3-50.1,0,0,70.4-29.7,61.1-93.5ZM140.2,125.9c-2.1,1-4.5-.1-5.1-2.3-.8-3.3-2-8-3.1-11.5-1.1-3.3-2.9-8-4.1-11.1s.4-4.2,2.5-4.7c7.7-1.8,24.1-4.1,26.8,7.3,2.6,11.1-10.1,19.1-17,22.5Z"/>
        <g>
          <path class="st0" d="M213.6,95.1c-9.3-63.8-87.7-61.6-108.1-57.2s-63.1,24.1-68.2,71.8c-6.2,57.6,11.6,126.5,34.1,141.3,16.8,11.1,30.1,12,44.3,10.2,14.2-1.8,40.3-13.3,42.1-22.6,3.9-20.2-5.3-50.1-5.3-50.1,0,0,70.4-29.7,61.1-93.5ZM140.2,125.9c-2.1,1-4.5-.1-5.1-2.3-.8-3.3-2-8-3.1-11.5-1.1-3.3-2.9-8-4.1-11.1s.4-4.2,2.5-4.7c7.7-1.8,24.1-4.1,26.8,7.3,2.6,11.1-10.1,19.1-17,22.5Z"/>
          <path d="M143.8,127.3c.7.9,1.4-.7,2-.6h0c.5-1.2,2.4-.5,2.9-1.9,0,.1.2.4,0,.5.6-.6,1.4-1.5,1.8-1,1.5-1.3,3.9-3,4-4.7v.2c0-1.1.7-.8.9-1.7,0,0,.2,0,.2,0,0-.5.3-1,.7-1.5.4-.4.8-.9.8-1.2l.4.2c.3-.5.5-1,.8-1.5-.1.2-.3.3-.4.5-.5-.4-.1-.5.3-.8.4-.3.9-.7.8-1.4.3-.5-.1-1.3-.5-2-.4-.7-.8-1.3-.4-1.8-.5-.6.8.6.5-.2.6,0,.3.4.9.3,0-.4.1-.8.3-1.1.2-.4.3-.8,0-1.3h.5c-.2-.4-.3-.7-.3-1.1,0-.3,0-.6,0-1,0-.6.2-1.2-.4-1.6-.8-1.3,1.1-1.4-.4-2.6.1-.3.2-.6.3-.9-.2-.7-1,0-1.1-.9.4-.2-.3-1.1.3-.9-.2-.5-.4-.9-.8-1.2-.4-.3-.8-.7-1.2-.9-.9-.6-1.8-1.1-2.5-2.2-.8.5-1.7-.5-2.2,0,0-.4-2-.8-.6-1.1.1,0,.3,0,.2.2l.3-.4c-.9-1.3-2.4-.3-3.5-.6.3.2.8.3.4.6-.4-.1-.7-.2-1.1-.3l.3-.4c-.5-.2-1.1-.4-1.6-.5v.5c-.6-.4-.8-1.3-1.7-.6-.4.4.7.8-.1.8-1-.4-2.5-1-3.8-1.1.1.6-.2.6-.6.7v-.5c-1.4.8-.6-1.1-1.9-.4l-.2.7c-1.1,1.1-.7-1-1.9.5.5-.1.4,1.1-.3.9v-.5c-.2.1-.3.4-.6.3.2-.3,0-.7-.5-.6l.3-.6-.8,1c-.8-.4-1.9.4-2.3-.2,0,0-.1,0-.3,0-.2,0-.3,0-.6,0-.8.2-1.6.5-1.7.9.4-.6-1.2-.4-1-1-.2.4-.8.8-1.3,1.2-.6.4-1.1.8-1.6.8,0,0,0,0,0-.1-1.4.8-2,2-2.3,3.3-.3,1.2-.4,2.4-.6,3.7.5,0,.4,1.3,1.1.9.3.5.4,1,.6,1.5.7,2-.1,2.9,1.8,2.7.4.6-.2,1-.2,1.4h-.2c.6,1.1.8,1.4,1.1,2.3.4.4,1.4,0,1.5,1-.5-.1-.3.2-.2.5-.1-.2-.3-.2-.4.3.1,0,.2,0,.3.1,0,0,0,0,0,0,.3.5.4.3.4,0,0,0,.1,0,.2-.2-.3.7.5,1.5-.1,1.8.6,1.5,1.6,2.4,2.3,3.7-.3.3-.7,0-1-.3l.4.9c-.5.1-.4-.5-.6-.7-.5,1.4,1.5,2.1,1.1,3.6l.5.2h0c.2,0,.6.2.7.4-.4.3-1,.3-.8.9-.3.6.6,1.4,1,2,0-.4.3-.3.5-.2.1.3-.3.6,0,.8l-.6.2c.1,0,.3,0,.4,0,.1,0,.2.1.3.3.2.4.5.8.7.8-.3.5-.7-.7-1.1-.7.4,1.2.7,1.4.8,1.7.2.2.3.6,1.3,1.4.7.2.7,0,.7-.1,0-.2,0-.5.3-.5.4.2.9.4,1.4.5.5.1.9.2,1.4.5-.1.1-.3.3-.4.4.7,0,1.3.3,2,.5.7.3,1.4.5,2.1.4l-3.3-6.6c.1.3,0,0,0,.1,0,0,0,0,0,0,0,0,0,0,0,0,0,0,0,0,0,0h.5c0-.1,0-.2,0-.2h0c0-.3-.1-.5-.2-.7-.7-3.7,0-5-1.4-8.7-.2-.9-.5-1.8-.8-2.8-.4-1-.8-1.9-1.2-2.7-1.1-.6-.8-2.3-1.9-3l.3-.5c-.4-.2-.7-.6-.5-1h.1c-.5-.4-.5-1-.8-1.2h.1s-.3-.6-.3-.6c0,0,.1,0,.2,0-.2,0-.3-.1-.4-.2-.1,0-.1-.2,0-.3h-.6c.3-.2.2-.4,0-.6,0-.2,0-.5.4-.3h.1c-.2-.3-.2-.4,0-.5.1,0,.3,0,.5.2h.2c0,.1,0,.2,0,.2,0,0,0,0,.1,0,.4,0,.8-.3,1.2-.7-.2.2.2.3.2.4.9-.3,1.8-.5,1.6-1.7.7,0,.6.3.7.7,0-.5.5-.8,1-.9l-.2.2c.5-.1,1-.2,1.4-.3l-.4-.9c.8.2.3,1.1,1,.9v-.8c1,0,1.7,1.3,2.7,1.8,2,.2,4.1,0,6,.3,1.9.3,3.5,1.2,3.8,2.7l-.4.5c-.3.3,0,.2.4.2.4,0,.8,0,.5.2.2,0,.3,0,.5.1,0,.2-.2.4-.4.3.1.3.2.2.5.3-.1.2-.3.3-.4.5,0,1.2,1.1,2.2.8,3.6-.4.4-.5.8-.7,1.3-.2.5-.3,1.1-.5,1.7,0,.3-.2.6-.3.9-.1.3-.2.6-.3.9-.2.6-.5,1.2-.7,1.7-.5,1.6-2.1,2.5-3.7,3.2-1.6.7-3.3,1.3-4.3,2.8-.2,0-.2.3-.2.4-.9.5-1.8,1-2.7,1.4,0,0-1.2-.4-2.3.2l3.6,7.2c.9-.4,1.6-.9,2-1.9Z"/>
          <path d="M211.3,111.9c-.7.6-.9,2.9-1.2,5.5-.2,1.3-.4,2.6-.6,3.7-.2,1.2-.5,2.1-.8,2.8v-.3c-.1.9-.3,1.8-.5,2.6-.2.9-.5,1.7-.8,2.6-.3.8-.6,1.7-1,2.5l-1.2,2.5c-.7,1.6-1.7,3.2-2.5,4.8-.8,1.6-1.7,3.1-2.3,4.7,0-.3-.1-.6.6-1.9-2.3,4.4-6.1,10.1-7,9.9-3.6,4.7-8.5,9.9-13.5,14.3-5,4.4-9.9,8.1-12.8,10.7l.3-.4c-3.3,3-4.7,3.2-8.8,6-.3,0-.6.2-.6.1-.9.7-2.1,1.4-3.3,2.1l-.5.3c-.3.1-.5.3-.8.4-.5.3-1.1.5-1.6.8-1.1.5-2.3,1-3.4,1.5.4,1.4.8,2.7,1.2,4.1.2.7.4,1.3.5,2,.1.5.2.9.3,1.3.4,1.6.7,3,1.1,4l-.4.3c.7,3.1,1.4,6.3,2,9.4-.2-1.2-.3-2.4-.6-3.6,1.5,1,.7,7.3,2.1,14.1.2,3.2,1,6.5,1.5,9.8.6,3.3.7,6.8-.1,10.1,0,.7-.1.9-.2.9,0,0,0-.4-.1-.6,0-.2-.1-.4-.2-.3,0,0-.1.2-.2.4-.1.2-.2.6-.4,1-.5-.2.3-1.8-.5-1.1-.2.8-.7,1.6-1.4,2.3-.6.7-1.3,1.3-2.1,1.9-1.5,1.2-3.3,2.4-5.6,4.1l-.5-.3c-2.9,2.3-6.2,3.8-9.3,5-3,1.2-5.8,2.1-8.1,3.3-3.6,1.5-5,1.4-6.4,1.5-.7,0-1.4,0-2.3.2-1,.2-2.3.5-4.1,1l-3.2-.3c-1.7,0-2.3.4-2.9.6-.6.2-1.4.4-3.2.3.2-.4-4.7-.4-2.5-.8-4.2-.4-8.3-.8-12.7-1.9-4.4-1.1-9.1-3-13.6-6.3-.6-.1-1.4-.5-2.2-.9-.8-.4-1.7-.9-2.4-1.4-.4-.2-.7-.5-1.1-.7-.3-.3-.6-.5-.9-.8-.6-.5-1.1-.8-1.5-1.1,0-.1-.4-.7-1.1-1.4-.6-.7-1.3-1.7-1.9-2.4-1.1-1.6-1.7-2.6.5-.4.4.4,1,1.1.8,1.1l.8.2c-1.6-2.6-3.3-4.9-5-7.2-1.6-2.4-3.4-4.7-4.7-7.7.6,1.8,1.9,4,.8,2.7-.5-.9-.9-1.8-1.3-2.7-.4-.9-.8-1.8-1.2-2.7l.9,1c-.6-1.4-1.1-2.8-1.7-4.1-.5-1.4-1.1-2.8-1.5-4.2,0,.4,0,.9,0,1.3-1.3-4.2-1-5.9-3.2-10.5-1.1-2,.6,4.2-.9-.2-1.5-5.8-3.2-14.5-4.5-22-.4.8-.8-1.2-1.3-3.2l.4-.3c-1.1-3.9-.9-4.7-.7-5.4.2-.8.3-1.5-.5-5.4l-.9-1.3c-1.9-7.1.5-4-1.7-11.8.4,3.2-1,1.6-1.1-2.3l.6.9c-.3-2.2-.6-2.9-.6-4.3.3,1.3.7.6.4-2.5l.7,2.1c-.4-2-.9-4-1.2-5.9.1-2.3,0-5.3,0-8,0-2.7,0-5,.3-5.9,0,0,.1-2.5.2-5.3.1-2.8.1-5.8-.2-7,.3,2,.9-3.4,1.3-1.8-.2-1.3-.2-3.8,0-6.4,0-1.3.2-2.6.4-3.7,0-.6.2-1.1.3-1.6.1-.5.3-.9.4-1.2v.6c1.2-5.3,2.2-9.7,3.7-14,1.4-4.2,3.2-8.2,6.1-12.1-.3,0,.2-1,.7-1.9.5-.9,1-1.8.3-1.5,2.6-4.4,6-7.6,8.9-10.2,2.8-2.6,5.1-4.5,5.9-6.5,3.6-3,4.8-2.9,6.8-4.2l-.8.7c3.6-2.5,6-4,8.2-5.2,2.2-1.2,4.3-2.3,7.2-3.6,2.9-1.5,3-2.8,8.6-4.4-1.7,1,.6.1,2.7-.5-1.3.5-1.7.7,1.1.2.3-.2.9-.5,1.5-.7,0,0,.1,0,.1,0,3.5-1,2.8-1,1.2-.6,0,0,0-.1-.6-.1,1.9-.2,4.4-.7,6.6-1,2.2-.3,4-.4,4.3,0,5.5-.6,10.2-.9,14.8-1.1,4.5-.2,8.9-.1,13.5.3,1,.5-1.2.5-3.9.5,2.2.1,4.4.4,6.5.6-.1.5-3.8-.2-5.8-.2,3.8.8,7.8,1.1,11.9,1.7,2.1.2,4.2.7,6.3,1.1,2.1.5,4.3,1.1,6.3,2l1.9.2c.2,0,.3.2.5.2,0-.2,2.1.2,3.4.6,1,.9-.5.9,3.6,2.7.8.4,1.7,1,2.7,1.5,1,.5,2.2,1,3.4,1.7,2.4,1.1,4.8,2.5,6.7,3.7-2-1.5-1.2-1.2-.2-.8,1.8,1.3,2.5,2.5,4,3.4l-.3.6c-.1-.5,1,.3,2.4,1.3.7.5,1.3,1.1,1.9,1.6.5.5,1,.9,1.2,1,.3.6-.4,0-1.2-.7-.4-.4-.8-.8-1.2-1.1-.4-.3-.7-.5-.9-.5.9.7,1.4,1.4,2,1.9.5.5.9,1,1.3,1.3.7.7,1,1.1,1.4,1.5.3.4.7.9,1.3,1.6.3.4.7.8,1.1,1.4.4.6.9,1.3,1.6,2.3.8.9,1.1,1.3,1.3,1.4.2.1.1,0,0-.4-.1-.5-.5-1.3.4-.5.6.9,1.1,1.8,1.7,2.7.3.5.6.9.9,1.4.3.5.5,1,.8,1.4.5,1,1,2,1.4,3,.4,1.1.7,2.2,1.1,3.4l-.9-1.3c.3.7.6,1.4.8,2.1.2.7.4,1.3.5,2,.2,1.3.4,2.6.5,3.8,0,.6,0,1.2,0,1.7,0,.6,0,1.1,0,1.7,0,1.1,0,2.1.2,3.1l8-1.2c-1.2-7.8-3.2-14.9-6.9-22.2-.5-.9-1-1.8-1.5-2.7-.5-.9-1-1.9-1.7-2.8-1.3-1.8-2.5-3.7-4-5.5-.4-.5-.8-.9-1.1-1.4l-.6-.7-.6-.7c-.9-.9-1.7-1.8-2.7-2.7-1.9-1.7-3.9-3.6-6.2-5.2-5.3-4.1-10.1-6.8-14.4-9-2.2-1-4.2-2-6.3-2.8-2-.9-4-1.6-6-2.3-4-1.3-8.1-2.5-12.9-3.4-4.8-.9-10.3-1.7-17.1-1.9-6.4-.4-13.1-.4-19.7.2-3.3.3-6.6.7-10,1.4-3.4.7-6.5,1.6-9.6,2.6-2.8,1.3-6.7,2.8-10.6,4.5-3.9,1.7-7.9,3.8-10.8,6-.9.3-1.7.7-2.6,1-.5.4-1,.8-1.5,1.2-.5.4-1,.8-1.6,1.2-1.1.8-2.2,1.6-3.3,2.2v-.2c-2.7,2.5-6,5-7.2,6.4v-.2s-1.6,1.6-1.6,1.6l-1.6,1.6.4-.7c-2.2,2.4-4.2,5-6.3,7.5-1.9,2.6-3.8,5.1-5.4,7.5h.7c-3.6,5-5.3,9.1-6.7,12.9-1.3,3.9-2.5,7.7-4.1,13.1v-.2c-.5,3.5-.8,6.7-1.1,9.7-.1,1.5-.3,2.9-.5,4.2-.2,1.4-.3,2.8-.5,4.1-.6,5.5-1.1,11.1-.3,18.2-.2-1.8-.3.8-.4.6.2,6.6.8,13.5,2,13.6.3,4.7,0,3.9-.5,4.5.5,0,1,4,1.5,7.7l-.4-1.7c.4,3.5.9,7,1.5,10.5.2-.7.4-1.5.6-2.2.5,5.6-.9,1.6,0,6.9l.8-.2c1.1,7.7.9,12.4,2.1,19.9,1.8,7.7,4.2,15.4,7.1,23,1.5,3.8,3.1,7.5,5,11.2,1.9,3.7,3.9,7.3,6.3,10.7,2.4,3.4,5,6.7,8.3,9.5.8.7,1.7,1.4,2.6,2l.7.5.6.4,1.3.8c.8.5,1.7,1.1,2.6,1.5.9.5,1.7,1,2.6,1.5,7,3.8,14.7,6.4,22.4,7.4.4.3.9.5,1.3.7.1.2.7.3,1.6.3.9,0,1.9-.2,3-.3,1.1-.2,2.2-.4,3.1-.5.9-.1,1.6-.1,1.9,0,1.2-.2,2.3-.4,3.5-.7,1,0,3,0,1.3.4,1.6-.2,2.5-.3,3.2-.5.7-.2,1.3-.4,2.4-.8,1.2,0,2.4-.2,3.5-.3,6.3-1.5,11.7-3.7,17.1-6.4,2.7-1.4,5.3-2.9,8-4.5,2.7-1.7,5.3-3.6,8-6.2.8-.7,1.6-1.5,2.3-2.5.8-1,1.5-2.2,2-3.9l.2-.6c0-.2,0-.3,0-.5,0-.3.1-.6.2-.9,0-.6.2-1.2.3-1.8.2-1.2.3-2.4.4-3.7.4-5,.2-10.3-.4-15.6-.6-5.3-1.6-10.6-2.7-15.6-1.1-4.7-2.9-10.9-3.1-11.2.3-.1.5-.3.7-.4.1,0,.2-.1.4-.2h.2c0-.1,0-.2.3-.3,5.3-3,10.6-6.2,16-9.8,5.3-3.6,10.6-7.4,15.6-11.8,5-4.4,9.6-9.2,13.6-14.6,3.9-5.3,7.2-11.2,9.3-17.2.4-.7,1-2.8.9-2.8,2.7-7.2,4.3-14.9,4.8-22.6,0,0,0-.4.2-1.2,0-.8.3-1.9.4-3.4,0-1.4.1-3.2.1-5.1-.1-1.9-.3-4.1-.6-6.4l-8,1.2c.7,6.1,1,11,1.3,16.3Z"/>
        </g>
      </g>
      <g>
        <path class="st5" d="M303.5,76.6s-86.5,11.3-71.8,93.6c14.5,81.2,131.4,53.3,137.3,2.5,5.3-45.6-7.5-98.4-65.6-96.1ZM316.3,140.7c1.4,11.4-14.1,19.3-21.7,9.7-7.6-9.6-1.2-17.1-1.2-17.1,10.4-9.7,21.4-4,22.8,7.4Z"/>
        <g>
          <path class="st0" d="M303.5,76.6s-86.5,11.3-71.8,93.6c14.5,81.2,131.4,53.3,137.3,2.5,5.3-45.6-7.5-98.4-65.6-96.1ZM316.3,140.7c1.4,11.4-14.1,19.3-21.7,9.7-7.6-9.6-1.2-17.1-1.2-17.1,10.4-9.7,21.4-4,22.8,7.4Z"/>
          <path d="M318.8,137.9c1.1-.5-.3-1.4,0-1.9h.1c-.6-.4-.6-.9-.7-1.5,0-.6,0-1.2-.7-1.5.1,0,.4-.1.5,0-.5-.6-1.3-1.4-.8-1.9-.3-.4-.7-.8-1-1.2-.4-.4-.7-.9-1.2-1.2-.4-.4-.9-.7-1.3-.9-.5-.2-.9-.3-1.3-.2h.2c-1,.1-.8-.6-1.7-.6,0,0,0-.2,0-.2-.5.1-1,0-1.5-.3-.5-.2-1-.4-1.3-.3v-.4c-.2,0-.4-.1-.7-.2h-.8c0,0,.6.1.6.1-.2.6-.4.4-.8,0-.4-.3-.9-.7-1.4-.3-.5,0-1,.6-1.5,1.2-.5.6-.8,1.2-1.3,1-.3.6.2-1-.4-.4-.1-.6.2-.5,0-.9-.3.2-.6.1-1,0-.3,0-.7,0-1,.3l-.2-.5c-.4.6-1,.6-1.5.7-.5,0-1,.1-1.1.7-.8.9-1.5-.9-2,.6l-.8-.3c-.5.2.2.9-.5.9-.2-.4-.8.2-.8-.4-.7.2-1.1.8-1.5,1.4-.2.4-.7.7-1,1.2-.2.2-.4.4-.6.7-.2.2-.4.3-.7.5.5.8-.4,1.4,0,1.9-.4-.1-.8,1.7-1.1.4,0-.1,0-.3.2-.2l-.4-.3c-.7.3-.7.9-.7,1.5,0,.6.2,1.1,0,1.7.2-.3.3-.7.6-.3,0,.3-.2.6-.3,1l-.4-.3-.5,1.5h.5c-.4.5-1.2.8-.5,1.7.4.4.7-.7.8,0-.2.5-.4,1.1-.5,1.8-.1.7-.2,1.4-.1,2,.6-.2.6.1.8.4l-.5.2c1,1.1-.9.8,0,1.9h.7c1.4.7-.7,1,1,1.6-.3-.4.9-.7,1,0h-.5c.2.3.5.3.5.6-.3,0-.7.2-.4.6h-.7c.4.1.8.3,1.2.4-.1.9,1.1,1.4.7,2.1,0,0,.6,1.4,1.5,1.3-.6,0,0,.9-.7,1,.7,0,1.9.6,1.9,1.4h-.1c.3.4.7.7,1,1,.4.2.8.4,1.2.5.8.3,1.6.5,2.3,1.1.1-.6.9,0,.9-.7.9,0,1.6.5,2.2.8.6.3,1.2.3,1.6-.8.7,0,.9.6,1.3.7h-.2c.7,0,1.2,0,1.6-.1.4,0,.8-.1,1.3-.2.5-.3.3-1.4,1.2-1.4-.2.5.2.3.5.2-.2.1-.2.3.3.4,0-.1,0-.3.2-.3,0,0,0,0,0,0,.5-.3.3-.4,0-.4,0,0,0-.1-.2-.2.7.3,1.5-.6,1.8,0,1.5-.9,2.1-2.2,2.9-3.3.4.2.3.6,0,1,.2-.2.5-.5.7-.7.4.4-.2.6-.4.9.8,0,1.1-.6,1.4-1.3.3-.6.6-1.3,1.3-1.6l-.2-.5h.1c-.2-.2-.3-.6-.2-.8.5.1.9.6,1.3,0,.7-.3.6-1.5.7-2.3-.2.3-.4,0-.5-.1.1-.3.6-.3.5-.7l.6.2c-.6,0-.3-1.1-.5-1.3.5,0,.2.6.5.8.2-.7.2-.9.3-1,0-.2,0-.3.2-1.1-.3-.8-.6,0-1.1-.4,0-.3-.1-.6-.2-1,0-.3,0-.6.2-1l.4.2c-.3-.9,1.3-1.6,1.5-2.4l-8,1c0,.6,0,1.1,0,1.7,0,.6,0,1.2-.2,2.1-.5.9-1.2,1.2-1.8,1.5-.6.3-1.1.7-1.8,1.4-.8.5-1.6,1.2-2.5,1.6,0,.5-.4.6-.8.6-.3,0-.7,0-.9.4l-.2-.5c-.2.2-.4.4-.6.2h0c-.3.2-.6,0-.7.1h0c-.1-.1-.2-.1-.3-.1v-.2c-.4.3-.9.2-1.2-.1l-.2.6c-.3-.5-.6-.5-1-.5-.3,0-.7-.1-.8-.7h0c-.9.1-1.1-.4-1.2-.9,0-.1,0-.3,0-.4,0-.1,0-.3-.2-.4-.2-.2-.4-.4-.9-.5.3,0,.2-.2.3-.3-.5-.4-.9-1-1.9-.5-.2-.4.1-.5.5-.8-.5.2-.8,0-1-.4h.2c-.2-.2-.4-.5-.6-.8-.3.2-.5.3-.8.5,0-.7,1-.5.7-1l-.7.2c-.1-.8,1-1.5,1.5-2.2,0-1.3-.2-2.7,0-4.2.1-.7.3-1.5.7-2,0,0,0-.1.2-.2,0,0,.2-.1.3-.2.3-.2.7-.3,1.1-.4l.5.4c.3.3.2,0,.2-.4,0-.4,0-.8.2-.5v-.5c.2,0,.5.1.5.4.3-.1.2-.3.3-.6l.5.3c.6,0,1-.4,1.4-.8.4-.3.9-.7,1.5-.8.4.2.8.3,1.2.2.4,0,.9,0,1.3,0,.9,0,1.9-.3,2.7-.2.3,0,.6,0,.9,0,.2.1.5.3.7.5.1.1.2.2.3.3,0,.1.1.3.2.4.1.3.3.6.4.8,0,.3.2.6.3.9v.4c.2.1.2.3.3.4.1.3.2.5.4.7.2.2.4.4.6.6,0,.1.2.2.3.1.1.3.2.7.3,1,0,.4.2.7.2,1,0,0-.2.2-.4.5-.2.3-.3.7-.2,1.1l8-1c0-.9-.4-1.7-1.1-2.3Z"/>
          <path d="M315,79.9c.4.6,2,.8,3.7,1,1.7.3,3.6.4,4.5.8h-.2c1.2.1,2.4.4,3.6.7,1.2.4,2.3.9,3.4,1.4,1.1.5,2.2,1.1,3.2,1.6,1.1.5,2.1,1.1,3.2,1.4-.2,0-.4.2-1.4-.2.7.4,1.6.7,2.4,1.1.8.4,1.5.9,2.2,1.3,1.3.9,2.2,1.7,2.1,2,3.2,2.3,6.6,5.6,9.3,9.1.7.9,1.4,1.7,2,2.6.6.9,1.2,1.7,1.8,2.4.5.8,1,1.5,1.5,2.2.2.3.5.6.7.9.2.3.4.6.6.9l-.3-.2c1,1.2,1.4,2,1.8,3,.4.9.7,1.9,1.5,3.4,0,.2,0,.4,0,.4.4.7.9,1.6,1.3,2.6.4,1,.7,2.2,1.1,3.3.4,1.1.6,2.2.8,3.2.3,1,.5,1.8.7,2.5l-.4.3c.2,1.1.5,2.1.7,3.2l.6,3.2-.3-2.4c1.4.6.2,5,1.4,9.7.3,4.4,3.2,9,2.6,13.8.6,2.3-.9-2-.5,1.4-.6,0-.4-1.6-.9-.7.2,3.3-.8,5.4-.6,9.4h-.5c.3,2.8-.2,5.3-.6,7.5-.2,1-.5,2-.7,2.9-.2.9-.4,1.8-.4,2.6-.3,1.3-.7,2-.9,2.6-.3.6-.7.9-1,1.2-.3.3-.6.7-.9,1.3-.3.6-.7,1.4-1.1,2.7-.5.5-1.1.9-1.7,1.4-.6.9-.7,1.4-.9,1.8-.1.4-.2,1-1.2,1.8-.1-.2-.7.4-1.2.8-.5.4-.9.7-.5,0-2.1,1.9-4,4.1-6.3,6.3-2.3,2.2-5,4.3-8.6,5.9-.5.8-1.7,1.6-2.8,2.3-1.2.7-2.3,1.3-2.7,1.9-.3-.2-7.2,3.3-3.5.7.3-.2.9-.5.9-.3l.3-.7c-4.4,1-7.2,3.6-11.4,4.8,1.3-.2,2.9-.9,1.9-.1-1.3.4-2.6.8-3.9,1.2.2-.2.5-.4.7-.6l-3,.7-3,.6c.3.1.6.2.9.3-3,.4-4.1-.2-7.3,1-1.4.6,2.9.3-.2.9-2,.2-4.5.2-7.1.2-2.6,0-5.4-.1-7.9-.3.5.6-.9.5-2.3.6v-.5c-2.8.2-3.3-.2-3.7-.5-.5-.3-.9-.7-3.5-.8l-1,.5c-2.4,0-3-.4-3.7-.7-.3-.2-.7-.4-1.2-.5-.6-.1-1.5-.2-2.8-.3,2,.5.7,1.3-1.8.4l.8-.3c-1.4-.3-1.9-.3-2.8-.7.9,0,.6-.5-1.3-1.2.5,0,1,0,1.5,0-.7,0-1.3-.2-2-.3-.7,0-1.3-.2-2-.4-1.3-.8-3-1.7-4.6-2.5-1.5-.8-2.8-1.7-3.1-2.3,0,0,0,0-.2-.2-.1-.1-.4-.2-.6-.4-.5-.4-1.2-.9-1.9-1.4-.7-.6-1.4-1.1-2.1-1.6-.6-.5-1.2-.9-1.6-1,.6.3.3-.2,0-.8-.3-.5-.6-1.1,0-.9-.8-.4-2.1-1.4-3.3-2.6-.6-.6-1.1-1.3-1.6-1.9-.5-.6-.8-1.2-1-1.7l.3.3c-1.9-3.1-3.6-5.7-5.1-8.3-.8-1.3-1.4-2.7-2-4.1-.5-1.4-1.1-2.9-1.4-4.6-.5.5-1.2-3-1.6-2-.6-1.6-1-3.3-1.2-4.8-.3-1.5-.3-3-.4-4.4-.2-2.7-.6-4.7-1.7-5.9-.4-3.2.3-3.9.2-5.5l.2.8c-.1-.8-.1-1.4-.1-2.1,0-.6,0-1.2,0-1.7,0-1.1,0-2,0-2.9,0-1.7.2-3.3.4-5.5,0-1.1-.2-1.8-.4-2.7-.1-.9-.1-2,.3-4,.2,1.4.3-.3.7-1.7-.2.9,0,1.3.7-.6,0-.3,0-.7,0-1.1,0,0,0,0,.1,0,.4-2.4.2-2.1-.1-1,0,0-.2,0-.3.3.3-.6.5-1.3.8-2.1.3-.7.5-1.5.8-2.3.5-1.4.9-2.6,1.3-2.6.3-.9.7-1.7,1-2.5.3-.8.6-1.6.9-2.4.7-1.5,1.3-3,1.9-4.3.7-1.3,1.4-2.7,2.1-4,.8-1.3,1.6-2.5,2.5-3.9.7-.3,0,1-.9,2.6l1.3-1.8c.4-.6.9-1.2,1.4-1.7.2.2-.2.7-.7,1.3-.5.6-1.1,1.4-1.4,2,.5-.5.9-.9,1.3-1.5.5-.5.9-1,1.3-1.5.9-1,1.7-2.2,2.6-3.2,1.8-2.2,3.8-4.4,6.5-6l.7-1.1.3-.2c-.1-.2.7-1.3,1.5-1.9,1-.1.6.9,3.1-.9,1.1-.5,2.6-1.4,4-2.5,1.5-1,3.1-2.2,4.4-3-1.6.7-1.2.2-.6-.3,1.4-.7,2.4-.7,3.4-1.4l.4.5c-.8-.3,3.4-2.3,3.9-2.7,1,0-2.1,1.3-2.3,1.8,2.8-1.3,3.6-1.6,4.3-1.9.7-.3,1.4-.6,4.4-1.7,3-1.5-.8-.4.6-1.4,2.8-1.1,5.4-2.4,8.8-2.9l-.9.7c4.1-1.4,7.5-.4,10.1-.5l-1-8c-1.5.2-2.7.4-4,.7-1.3.3-2.5.5-3.8.8-2.5.6-5,1.3-7.6,2.1-5.2,1.7-10.9,3.8-17.7,7.4-8.1,4-13.1,7.1-17.8,10.6-1.2.9-2.3,1.9-3.5,2.9-1.2,1-2.3,2.2-3.6,3.4-.6.6-1.2,1.3-1.8,2-.6.7-1.2,1.4-1.9,2.2-.7.8-1.2,1.7-1.9,2.5-.6.9-1.4,1.8-2,2.9-1.2,2-2.6,3.9-3.6,6-.5,1.1-1.1,2.1-1.6,3.2l-1.4,3.3-.7,1.6c-.2.6-.4,1.1-.5,1.7-.4,1.1-.7,2.2-1.1,3.4-.2.6-.3,1.1-.4,1.7-.1.6-.3,1.1-.4,1.7-.3,1.1-.5,2.2-.7,3.3,0,1.1,0,2.3-.2,3.7-.2,1.4-.4,2.8-.5,4.3-.1,1.5-.3,3-.3,4.5,0,1.5,0,2.8.2,4.1l-.5,1.9c.2,1.7.6,3.7.4,5.4h-.1c.3,1.2.4,2.5.5,3.7.2,1.2.3,2.2.5,2.8h-.2c0,0,.5,2.9.5,2.9l-.3-.5c.9,4.3,2,8.8,3.1,12.7l.5-.5c1,4.2,2.3,7,3.6,9.5.3.6.7,1.3,1,1.9.4.6.7,1.3,1.1,1.9.4.7.8,1.4,1.2,2.1.4.7.8,1.6,1.3,2.4h-.2c3.5,3.7,5.9,6.7,8.6,9.7,2.7,2.9,5.9,5.7,10.7,7.7-1.2-.5.3.5.2.6,2.1,1.1,4.4,2.1,6.1,2.7,1.8.6,3.1.7,3.3.2,3.2,1.2,2.5,1.3,2.8,1.8,0-.2.8-.2,1.9,0,1,.2,2.4.5,3.7.8h-1.2c1.2.2,2.5.4,3.7.7,1.2.3,2.5.4,3.7.6l-1.3-1.2c3.8.9.8,1.3,4.6,1.6v-.8c2.7.4,4.9.8,7,1.3,2.1.4,4.3.9,7,1,11.2-.4,22.5-3.4,32.8-8,10.3-4.6,19.7-10.8,27.5-18,.4,0,.7-.2,1.1-.3.4.1,1.2-1.2,1.9-2.6.7-1.4,1.4-2.8,1.9-2.9.4-.7.7-1.5,1.1-2.3.5-.5,1.4-1.7.9-.5,1.2-2,1.1-2.1,1.7-3.7.5-.7,1.1-1.3,1.6-2,1.1-2.1,1.8-4.2,2.3-6.4.2-1.1.5-2.2.6-3.3.1-1.1.3-2.2.3-3.2.3-4.1.4-8.2.6-12.7.7-5.4.7-13.4-.5-21.4-1.1-8-3.4-16-5.6-21.5-1.7-3.9-3.4-7.9-5.5-11.9-2-4-4.5-8-7.4-11.7-2.9-3.7-6.3-7.1-10.2-9.9-3.9-2.7-8.1-4.7-12.4-6-.5-.3-2-.5-2-.4-5.1-1.7-10.4-2.8-15.7-3.3,0,0-.3,0-.8-.2-.5-.1-1.3-.3-2.3-.4-2-.4-4.8-.5-7.9-.5l.3,8.1c2.1,0,4,0,5.9,0,.9,0,1.8,0,2.7,0h1.4c.5-.1.9-.1,1.4-.2Z"/>
        </g>
      </g>
      <g>
        <path class="st5" d="M471.3,111.6c-20.9-1.8-6.5-30.4-45.5-25.1-32.1,4.4-44.9,52.9-16.5,98.9,28.7,46.7,119.4,39.7,135-30.1,14.3-64.4-10.7-72.8-29.5-72.7-33.1.3-19.6,30.9-43.4,28.9Z"/>
        <path d="M485.3,110.3c.4,0,1-.4,1.7-1.1.3-.3.6-.8,1-1.2.3-.4.6-.9.9-1.4,1.2-2,2-4.1,2.6-4.9v.2c.8-2.7,2.2-5.1,3.8-7.1,1.6-2,3.3-3.4,4.9-5,0,.2,0,.5-.8,1.1,1.2-1,2.8-2,4.3-2.6.8-.2,1.4-.5,1.9-.5.5,0,.9,0,1,.1.2,0,.5-.1.7-.2.3,0,.5,0,.8-.2.5,0,1.1-.2,1.6-.3,1.1-.1,2.3-.3,3.5-.3,2.4-.1,5,0,7.3.2,4.7.4,8.7,1.7,11.2,2.6h-.4c1.5.4,2.3.9,3.1,1.6.4.3.8.7,1.2,1.1.4.4,1,.9,1.6,1.4,0,.2.2.4.1.4,1.4.9,2.8,3,3.9,5.1.6,1.1,1,2.2,1.4,3.2.3,1,.7,1.9,1,2.5l-.4.3c.6,2.2,1.2,4.5,1.5,6.8,0-.9-.2-1.8-.3-2.6.3.2.5.6.6,1.2,0,.6,0,1.4,0,2.4,0,1.9-.1,4.3.3,6.9,0,2.4.6,4.9,1,7.5.2,1.3.4,2.6.5,3.9,0,1.3,0,2.6-.3,3.9.3,2.5-.7-2.3-.7,1.4-.6,0-.2-1.8-.8-.9,0,1.8-.4,3.3-.8,4.8-.4,1.5-.7,3.2-1,5.4h-.5c0,3-.8,5.7-1.5,8.1-.7,2.4-1.5,4.4-1.5,6.4-.7,2.9-1.4,3.6-2,4.5-.3.4-.6.9-.9,1.6-.3.7-.7,1.6-1.1,3.1l-1.6,1.9c-1.3,2.2-.1,2-1.8,4.4-.2-.2-.6.6-1.1,1.1-.5.6-.8.9-.5.2-1,1.3-1.9,2.6-2.8,4-1,1.3-1.9,2.7-2.9,4.2-1.1,1.4-2.3,2.8-3.5,4.2-1.4,1.3-2.9,2.6-4.6,3.8-.4.9-1.6,1.9-2.7,2.9-.5.5-1.1.9-1.6,1.3-.5.4-.9.8-1.1,1.1,0,0-.6.2-1.2.6-.3.2-.7.4-1,.6-.4.2-.7.4-1.1.6-1.3.7-2.2,1.1-.3-.5.3-.3.9-.6,1-.5,0-.2.1-.5.2-.7-1.1.5-2.2.9-3.1,1.5-.9.6-1.8,1.2-2.8,1.8-.9.6-1.8,1.2-2.8,1.8-1,.6-2,1-3.1,1.5,1.4-.4,3.1-1.2,2.1-.4l-4.1,1.6c.2-.2.5-.5.7-.7-1,.4-2.1.7-3.1,1-1.1.3-2.1.7-3.2.9.3,0,.7.2,1,.2-1.6.3-2.7.3-3.9.4-1.1.2-2.3.4-4,1.1-1.6.7,3.2,0-.2.9-4.4.5-10.9.8-16.4.4.5.6-1,.6-2.5.6l-.2-.5c-1.5,0-2.3,0-2.9,0-.6-.1-.8-.3-1.1-.5-.5-.4-1-.7-3.9-.8-.4.2-.7.3-1.1.5-2.7,0-3.3-.4-4-.8-.7-.4-1.5-.8-4.5-.9,1.1.2,1.3.6.9.7-.4.2-1.5.2-2.8-.4l.8-.2c-1.5-.4-2.1-.4-3.1-.8.5,0,.7,0,.4-.3-.2-.2-.9-.5-1.9-.9.5,0,1.1,0,1.6,0-1.5-.2-2.9-.5-4.3-.8-.4-.2-.8-.4-1.2-.7-.4-.2-.8-.5-1.3-.7-.9-.5-1.8-.9-2.6-1.3-1.7-1-3.1-1.9-3.5-2.5,0,0,0,0-.3-.2-.2-.1-.4-.3-.7-.5-.5-.4-1.3-1-2.1-1.6-.4-.3-.8-.6-1.2-.9-.4-.3-.8-.6-1.1-.9-.7-.5-1.4-.9-1.8-1.1,1.4.6-1.4-2.1-.2-1.8-.8-.5-2.2-1.6-3.6-2.8-1.2-1.4-2.4-2.8-2.9-3.8,0,.1.2.2.3.3-.5-.8-1-1.7-1.5-2.4-.5-.8-1-1.5-1.5-2.3-.9-1.6-2-3-2.8-4.5-.9-1.5-1.8-2.9-2.5-4.5-.4-.8-.8-1.6-1.1-2.4-.3-.8-.6-1.7-.9-2.6-.2.3-.6-.5-1-1.3-.4-.7-.7-1.4-.9-.8-.8-1.8-1.5-3.5-2-5.2-.2-.8-.4-1.6-.6-2.4-.2-.8-.3-1.5-.5-2.3-.1-.7-.3-1.4-.5-2-.1-.6-.3-1.2-.5-1.7-.4-1.1-.9-1.9-1.6-2.5-.4-1.7-.4-2.8-.4-3.6,0-.9.2-1.5,0-2.4l.2.8c-.1-.8-.3-1.6-.4-2.2,0-.7-.2-1.3-.2-1.9-.1-1.2-.2-2.2-.3-3.1,0-1,0-1.9-.1-2.8,0-1,0-2,0-3.2,0-2.4-1.2-2.9-.4-7.2.3,1.5.4-.3.7-1.9-.1,1,0,1.4.6-.7,0-.3,0-.8,0-1.2,0,0,0,0,.1,0,.5-2.7.2-2.2-.1-1,0,0-.2,0-.4.4.3-.7.5-1.5.8-2.3.3-.8.5-1.7.8-2.5.5-1.6,1-2.8,1.4-2.8,1.4-3.8,2.8-6.9,4.5-9.7,1.7-2.8,3.6-5.3,6.1-7.5.8-.2-.2,1.1-1.5,2.4,1.1-1.1,2.2-2.1,3.5-3,.1.2-.3.7-1,1.2-.6.5-1.4,1.2-1.9,1.7,2.3-1.5,4.4-3.3,6.9-4.8,2.5-1.5,5.4-2.8,8.6-2.8.4-.2.9-.4,1.3-.6h.4c0-.2,1.4-.7,2.4-.8,1,.4,0,1,3.3.9.6.1,1.4.1,2.3.1.8,0,1.8,0,2.7,0,1.9,0,3.8.2,5.4.5-1.6-.5-1-.6-.3-.6,1.5.4,2.1,1.2,3.2,1.6l-.2.6c-.1-.4.8,0,1.8.5.5.3,1,.6,1.4.9.4.3.7.5.9.6.1.5-.3,0-.9-.3-.6-.5-1.3-.9-1.6-.9.3.2.5.4.8.6.2.2.4.4.6.5.4.3.6.6.8.8.5.5.7.8.9,1.1.2.3.5.6.8,1.2.4.6.9,1.4,1.7,2.9,2.1,3,.2-.9,1.5.4.8,1.4,1.6,2.8,2.6,4.3.9,1.5,2,3,3.3,4.7-.4-.2-.8-.4-1.2-.7,3.7,4,7.5,6.5,11.2,7.2l.7-8.1c-4.6-.5-6.7-2.1-9.2-6.8-1.3-2.3-2.5-5.2-4.8-8.5-1.1-1.6-2.5-3.2-4.3-4.7-1.8-1.5-3.9-2.6-6.2-3.5-2.7-1.1-5.1-1.6-7.3-1.9-1.1-.2-2.2-.3-3.2-.3-1-.1-2-.1-2.9-.1-.5,0-.9,0-1.4,0-.4,0-.9,0-1.3,0-.9,0-1.7,0-2.6,0-1.7.1-3.2.2-5,.5-3.5.5-7,1.5-10.6,3.4-3.6,1.9-7.5,4.7-11.1,9-3.5,4-6.3,8.8-8.3,13.7-2,4.9-3.1,10-3.8,14.9,0,1.2,0,2.6-.1,4.1,0,1.5-.2,3.1-.2,4.8,0,1.6,0,3.3,0,4.9,0,.8.1,1.6.2,2.3,0,.7.2,1.5.4,2.1l-.3,2.1c.2.9.5,1.9.6,2.9.2,1,.3,2,.3,2.9h-.2c.8,2.6,1.3,5.7,1.8,7h-.2c.3,1,.6,2.1.9,3.2l-.3-.5c1.7,4.6,3.3,9.2,4.9,13.3l.4-.6c.7,2.2,1.5,4,2.3,5.6.7,1.6,1.6,2.9,2.3,4.2.8,1.3,1.6,2.6,2.4,4,.4.7.8,1.5,1.3,2.3.5.8,1,1.7,1.5,2.6h-.2c.5.5.9,1,1.3,1.5.4.5.9.9,1.3,1.4.8.9,1.6,1.8,2.4,2.7.8.8,1.6,1.6,2.3,2.5.7.8,1.4,1.7,2.2,2.4,1.6,1.5,3.1,3.1,5.1,4.4,1,.7,1.9,1.4,3.1,2,1.1.6,2.3,1.2,3.6,1.8-1.3-.6.4.6.2.6,1.2.5,2.4,1.1,3.5,1.6.6.3,1.1.5,1.6.7.5.2,1.1.4,1.5.5,1.9.6,3.3.9,3.6.3,3.5,1.2,2.7,1.3,3,1.9,0-.2.9-.2,2,.1,1.2.2,2.6.5,4,.9h-1.3c2.7.6,5.4.9,8.1,1.4-.5-.4-1-.8-1.4-1.2,1,.3,1.6.5,2,.6.4.2.5.3.6.4.2.3.4.4,2.5.6v-.8c5.9.7,9.4,2,15.4,2.2,6.1-.4,12.3-1.4,18.3-3.3,6-1.9,11.8-4.5,17.2-7.6,1.3-.8,2.6-1.6,4-2.5,1.3-.9,2.5-1.8,3.8-2.7l.9-.7.9-.7,1.8-1.5,1.8-1.4,1.7-1.6,1.6-1.5c.6-.5,1.1-1,1.6-1.6,1-1.1,2-2.2,3.1-3.2,1-1.1,1.9-2.3,2.8-3.4.5-.6.9-1.1,1.4-1.7.4-.6.9-1.2,1.3-1.7l1-.5c.5,0,1.1-1.5,1.7-3,.5-1.6,1-3.2,1.6-3.4.3-.9.7-1.7.9-2.5.4-.6,1.2-2,.9-.7,1-2.2.9-2.4,1.4-4.1.5-.7.9-1.5,1.4-2.3.9-2.3,1.7-4.5,2.2-6.7.5-2.2,1.1-4.4,1.4-6.6.4-2.2.7-4.4,1.1-6.6.4-2.3.7-4.6,1.1-7.1.7-2.9,1.3-6.5,1.6-10.6.3-4,.4-8.5,0-12.9-.4-4.5-1.2-9-2.6-13.2-1.3-4.1-3.3-7.9-5.4-10.7-3.1-3.9-7.1-7.4-11.8-9.7-4.7-2.3-9.9-3.5-15.1-3.9-1.3-.1-2.6-.2-3.9-.2h-2c-.7,0-1.3,0-2,0-1.3,0-2.7.3-4,.5-1.3.3-2.7.6-4,1.1-2.6.9-5.2,2.3-7.4,4.1-2.2,1.8-3.9,4-5.1,6.3-.5.5-1.1,2.1-1,2.1-1.5,2.6-2.7,5.2-3.9,7.5-.6,1.2-1.3,2.2-1.9,3.1-.7.9-1.4,1.7-2.2,2.3,0,0-.2,0-.6.2-.2,0-.4.1-.7.2-.1,0-.3,0-.4.1-.2,0-.3,0-.5.1-1.4.3-3.4.5-6.2.3l-.7,8.1c2.7.2,5.3.1,7.9-.7,2.5-.8,4.9-2.3,6.5-4.3Z"/>
      </g>
      <g>
        <path class="st5" d="M571.2,152c-1.6,39,16,67.4,60.5,73.3,50.4,6.7,56.7-14.5,59.4-20.4,3.4-7.4.7-38.7-3.6-43.3-4.3-4.6-21-.9-22-16.6s9.2-18.1,16.4-19.1,16.8-30.3,11.5-35.9c-5.4-5.6-38.4-25-66.3-16.3-27,8.4-54,34.3-55.8,78.3Z"/>
        <path d="M575.5,139.8c.3-.2.6-.7.7-1.5,0-.4.2-.8.2-1.2,0-.4.2-.9.3-1.4.4-1.9.7-3.9,1.1-4.9v.2c0-.3.1-.7.1-1,0-.3.1-.7.2-1,.2-.7.4-1.3.6-1.9.4-1.3.9-2.6,1.4-3.8.6-1.2,1.2-2.4,1.7-3.6.5-1.2,1-2.4,1.4-3.6,0,.2.2.5-.3,1.5.8-1.7,1.7-3.7,2.5-5.2.8-1.5,1.7-2.6,2-2.5.6-.9,1.1-1.9,1.8-2.9.7-1,1.4-1.9,2.1-2.9,1.4-2.1,3.1-3.9,4.6-5.8.4-.5.8-.9,1.2-1.3.4-.4.8-.9,1.2-1.3.8-.8,1.5-1.7,2.2-2.4,1.5-1.4,2.8-2.8,3.7-3.9l-.2.4c1-1.3,1.9-1.9,2.8-2.5.9-.6,1.8-1.3,3.3-2.4.2,0,.5-.1.4,0,2.5-2.7,9-5.1,11.5-6.4l.3.3c1.1-.5,2.2-.8,3.3-1.3,1.1-.4,2.2-.8,3.3-1.1l-1.2.3-1.3.4c.1-.4.5-.6,1.1-.8.6-.2,1.4-.3,2.3-.4.9-.1,1.9-.2,3.1-.4,1.1-.1,2.3-.4,3.5-.7,2.3-.2,4.7-.9,7.2-1.4,2.5-.5,5.1-.8,7.6-.2,2.5-.2-2.2.6,1.4.7,0,.6-1.7.1-.9.8,3.5.3,5.5,1.6,9.8,2.3v.5c2.9.3,5.4,1.3,7.6,2.4,2.2,1,4.1,2,6,2.4,2.7,1,3.4,1.8,4.2,2.5.7.7,1.6,1.4,4.4,2.5.6.6,1.1,1.2,1.6,1.8,1,.7,1.5.8,2,.9.5.1,1,.3,2,1.2-.1,0,.1.4.4.7.3.3.6.7.5.7,0,0,0,0-.1,0,0,0,0,0-.1,0,0,0,0,0,0,0,0,0,0,.1,0,.2,0,0,0,.1,0,.3,0,.4.2.9.2,1.5.1,1.3.1,2.8,0,4.4-.3,3.2-1,6.9-2.9,10.5,0,1-.3,2.4-.9,3.7-.5,1.3-1.1,2.5-1.1,3.3-.2,0-1.2,1.8-2,2.8-.4.5-.7.9-.9.9-.1,0,0-.3.4-1.2.1-.3.5-.9.6-.7l-.2-.7c-.7.8-1.4,1.6-1.9,2.1-.1.2-.2.3-.4.4-.1.1-.2.3-.3.3l-.2.2s0,0,0,0c0,0,0,0,0,.1h0c0,0,0,0,0,0,0,0,0,0,0,0h-.2c-.6.2-1.3.4-1.9.6-1.3.4-2.6.9-4,1.3,1.7-.5,3.9-1.1,2.5-.3-1.7.5-3.4,1.1-5.1,1.9.3-.3.6-.6.9-.9-2.6,1.1-5.1,2.7-7.2,5,.4-.2.8-.4,1.2-.5-.8.7-1.4,1.4-2.1,2-.6.6-1.1,1.2-1.6,1.9-.5.6-.8,1.4-1.2,2.2-.3.9-.6,1.9-.7,3.1,0,1.1.3.2.6-.5.2-.3.3-.6.3-.5,0,0-.1.5-.3,1.6-.2.7-.4,1.4-.5,2.1-.1.7-.2,1.5-.3,2.3,0,1.6-.2,3.2,0,5.1.2,1.8.6,3.8,1.5,5.7.9,1.9,2.2,3.7,3.7,5-.2-.9,1.4.6,3.2,1.4v.5c1.8.8,2.8,1.1,3.4,1.4.6.3.9.5,1.2.7.5.4,1.1,1,4.3,1.4l1.2-.4c2.4,0,2.9.5,3.3.8.2.2.3.3.5.5,0,0,0,0,.1,0,0,0,0,0,0,0,0,0,0,0,.2,0,0,0,.1,0,.2,0,0,0,.2.1.4.3,0-.2-.1-.3-.2-.4,0,0,0,0,0-.1,0,0,.2-.2.3-.2.2-.2.8.4,1.1,1.7-.2-.2-.4-.3-.7-.4.6,1.2.9,1.7,1,2.7-.5-.8-.8-.3-.2,1.8-.3-.4-.6-.9-.9-1.3.6,1.3,1.2,2.6,1.7,4,.1,3.4,1.3,8.7.7,10.1,0,0,0,1.8.2,3.9.1,2,.3,4.3.6,5.1-.5-1.4-.6,2.5-1.2,1.4.3.9.5,2.8.4,4.6,0,1.8-.3,3.6-.8,4.3v-.3c-.1.4-.2.7-.3.9,0,.1,0,.1-.1.3-.1.2-.2.5-.3.7-.2.4-.4.9-.6,1.3-.2.4-.4.8-.5,1.2-.2.4-.3.7-.5,1.1-.2.3-.4.7-.5,1-.3.7-.8,1.3-1.1,1.9-1.6,2.4-3.7,4.5-6.7,6,.6.3-2.7,1.8-1.6,2-.7.5-1.6.8-2.3,1.2-.8.3-1.5.7-2.4.8-.8.2-1.6.4-2.3.5-.7.2-1.4.3-2.1.4-1.4.2-2.6.4-3.6.7-1,.3-1.9.6-2.5,1.3-1.7.2-2.8.2-3.6.1-.8,0-1.5-.3-2.4-.3h.8c-6.5.3-8.4,0-13.3-.2-2.5,0-2.9,1-7.3.3,1.5-.3-.3-.4-2-.6.5,0,.9,0,.8,0,0,0-.5-.2-1.5-.6-.3,0-.8,0-1.2,0,0,0,0,0,0-.1-1.4-.1-1.9-.2-2-.1,0,0,.3.2,1,.3,0,0,0,.2.4.3-1.4-.5-3.3-.9-4.9-1.2-1.6-.4-2.9-.7-3-1.1-4-.9-7.3-1.8-10.5-2.8-3.2-1-6.1-2.2-9.1-3.7-.5-.7,1.1-.2,2.8.6l-2.1-1.1c-.7-.4-1.4-.8-2.1-1.2.2-.2.8,0,1.5.5.7.4,1.6.9,2.3,1.2-2.3-1.7-4.8-3.1-7.4-4.7-2.5-1.6-5.1-3.6-7-6.3l-1.2-.7c0-.1-.1-.2-.2-.3-.2.2-1.3-.8-2-1.5-.2-1,.9-.6-1.1-3.2-.5-1.2-1.6-2.7-2.6-4.3-1.1-1.6-2.1-3.4-2.9-4.9.7,1.7.2,1.3-.3.6-.7-1.5-.6-2.6-1.2-3.7l.5-.4c-.4.8-2-3.9-2.3-4.4.2-1,1.1,2.4,1.6,2.6-.6-1.6-.8-2.6-1-3.3-.2-.7-.3-1.1-.4-1.5-.2-.8-.4-1.6-1.1-4.9-1-3.4-.5.7-1.3-.9-.6-3.1-1.4-6.2-1.2-9.9.2.4.3.8.5,1.1-.6-4.7,1.2-7.9,1.5-11l-8.1-.3c-.2,5.8-.1,11.1.6,17,.1,1.5.4,3,.7,4.6.3,1.6.6,3.2,1,4.9.8,3.4,1.9,7,3.6,10.9,1.8,4.7,3.7,8.3,5.7,11.5,2,3.1,3.9,5.8,6.1,8.2,4.4,4.8,9.6,9.4,19.1,13.8,9,4.4,19.4,6.5,28.7,7.5,2.3-.2,5.3.1,8.4.5,1.6,0,3.2.2,4.8.2,1.6,0,3,0,4.4-.2l2.1.4c1.8-.3,4-.4,5.8-.4v.2c1.3-.3,2.7-.5,4-.7.6,0,1.2-.2,1.8-.3.5-.1,1-.2,1.3-.3v.2c0,0,3.3-.7,3.3-.7l-.5.3c4.7-1.6,9.6-3.2,13.7-5.6l-.6-.3c4.4-2.3,6.9-5,8.8-7.7.5-.7.9-1.4,1.4-2.1.4-.7.8-1.4,1.3-2.2.4-.8.8-1.6,1.3-2.4.2-.4.4-.8.7-1.3.2-.4.4-.8.7-1.2,0,0,0,.2,0,.2.6-1.9.7-3.3.9-4.6.1-1.3.2-2.5.3-3.6.2-2.3.4-4.4.5-6.5.2-4.2.3-8.4-1-13.7.3,1.3.2-.6.4-.5-.7-4.9-1.9-10.2-3.1-10-.4-1.8-.6-2.6-.5-3,0-.4.2-.4.4-.7-.2,0-.5-.4-.9-1.2-.2-.4-.5-.9-.8-1.4-.1-.3-.4-.6-.6-.9-.2-.3-.5-.6-.8-.9-.6-.6-1.4-1.1-2.1-1.5.6.2,1.2.6,1.7.9-.8-.7-1.7-1.2-2.5-1.5-.8-.3-1.5-.6-2.2-.7-1.4-.4-2.7-.6-4-.9l1.3,1.3c-2-.6-2.2-.9-2.4-1.2-.2-.3-.4-.5-2.2-.8l-.2.8c-2.6-.8-4.3-2-5.4-3.4-1.1-1.4-1.6-2.9-1.8-5-.3-1-.4-2.2-.4-3.4,0-.6,0-1.3,0-1.8,0-.6,0-1.2.2-1.8.3-2.3,1.2-4.4,2.6-6.1.7-.8,1.5-1.6,2.5-2.2,1-.7,2.1-1.2,3.2-1.7,1.2-.5,2.4-.8,3.7-1.1h.5c0,0,.4-.2.4-.2.2,0,.3,0,.4-.1l.9-.2c.3-.1.6-.3.8-.4.5-.2,1.1-.7,1.5-1,.4-.3.8-.7,1.1-1,2.6-2.8,3.9-5.6,5.3-8.4,1.3-2.8,2.3-5.7,3.2-8.5.9-2.9,1.6-5.7,2.1-8.7.3-1.5.4-3,.5-4.5,0-1.6,0-3.2-.3-5,0-.5,0-1,0-1.6.2-.3-.4-1.6-1.7-2.8-.7-.6-1.1-.8-1.7-1.1-.5-.3-1-.6-1.5-.8-.9-.5-1.6-.9-1.7-1.3-.8-.4-1.6-.8-2.4-1.1-.5-.5-1.8-1.5-.6-1-2.1-1.3-2.2-1.2-3.8-1.8-.7-.6-1.3-1.1-2-1.7-4.1-2.4-8.3-4-12.5-5.3-4.3-1.3-8.6-2.4-13.5-3.5-2.9-.9-6.6-1.6-10.7-1.9-4.1-.3-8.6,0-13.1.7-2.2.4-4.5,1-6.6,1.7-2.1.8-4.1,1.5-6,2.4-1.9.9-3.7,1.7-5.4,2.7-1.6,1-3.2,1.8-4.6,2.7-7.6,5.1-15.5,11-22.3,18.4-.4.5-.9.9-1.3,1.4l-1.2,1.5-2.4,2.9c-1.5,2-2.8,4.1-4.2,6.2-1.2,2.2-2.3,4.4-3.3,6.6-.9,2.3-1.7,4.5-2.4,6.8-.3.5-.5,2.1-.4,2.2l-1.3,4.1c-.4,1.4-.7,2.8-1.1,4.1-.3,1.4-.7,2.8-1,4.2l-.7,4.2s-.4,1.2-1,3.3c-.4,2.1-.8,5-1,8.4l8.1.3c.2-2.3.4-4.4.4-6.4,0-.5,0-1,0-1.5v-1.5c.1-1,.2-2,.2-3Z"/>
      </g>
      <g>
        <path class="st5" d="M856,67.9c12,1.8,21.7,4,26.6,13.7,4.9,9.7,2.2,68.7.4,79.7s-7.5,72.2-17.7,77.1-54.5-2.2-57.6-7.5,9.5-33.4-8-35.9-13.7,29.2-22.6,33.2c-8.9,4-50.9.9-57.2-10.2-6.2-11.1-1.3-73.1,1.8-91.7s8-58,19.1-64.2c11.1-6.2,50.2-6.4,56.3,3.1,6.2,9.7-5.4,34.2,11,36.6s11.2-24.2,17.4-29.9c6.2-5.8,18.6-5.8,30.6-4Z"/>
        <path d="M836.8,64.4c-.7-.4-3.2-.2-6,.7-1.4.4-2.9,1.1-4.2,1.9-.7.4-1.3.8-1.9,1.2-.6.5-1.1.9-1.6,1.3-.6.6-1.1,1.1-1.4,1.6l.2-.4c-.9,1.4-1.3,2.7-1.6,3.9-.3,1.2-.6,2.3-.8,3.4-.4,2.1-.7,4.2-1.1,6.3-.7,4-1.5,7.9-2.5,10.7,0-.3-.2-.5.3-1.8-.3,1.1-.8,2.2-1.4,3-.6.8-1.2,1.3-1.9,1.6-.7.3-1.5.4-2.1.4-.6,0-1-.2-1.1-.3-1.3,0-2.6-.3-3.5-.8-1-.5-1.6-1.1-2.1-2.1-.6-1-.9-2.5-1.1-4.2-.2-1.6-.2-3.4-.2-5.2,0-3.6.3-7.3.1-10.8-.2-3.5-.7-6.8-2.2-9.4l.5.7c-.7-1.4-1.5-2.6-2.5-3.6-.5-.4-.9-.9-1.3-1.2-.4-.3-.9-.7-1.3-.9-1.7-1.1-3.6-2-6.5-2.7-.3-.2-.7-.3-.6-.4-2.9-.5-7-1.2-10.9-1.6-3.9-.4-7.8-.6-10-.5l-.3-.4c-3.7,0-7.4.2-11.1.6,1.4-.1,2.8-.2,4.2-.2-.7.7-2.8.6-5.7.7-2.9.1-6.8.3-10.8,2-1,.3-1.9.6-2.9,1.1-.9.5-1.9,1-2.9,1.8-1.8,1.6-2.8,3.5-3.7,5.4-1.6,3.7-2.5,7.5-4,11-.6,3.7.1-3.4-1.2,2-.7,0,.4-2.6-.5-1.4-1.3,5.3-3.1,8.4-4.1,15.1l-.5.2c-.9,8.7-3.6,16-3.7,21.8-.5,4.4-1.1,5.8-1.6,7.3-.5,1.5-1,2.9-1.2,7.7l-1.1,3.5c-.6,4,.5,2.9-.3,7.3-.4-.3-.9,5.5-1,2.9-1.6,9.9-.8,20.3-2.5,33.4.7,2.9,0,9.5.7,11.7-.2.2-.2,3.5-.3,5.9,0,2.4-.1,3.8-.6,0,0-.6,0-1.8,0-1.7l-.5-.9c-.5,3.8-.3,7.3.1,10.7.4,3.5,1,6.9,1.6,10.9-.3-2.4-.6-5.4,0-3.4.3,2.4.6,4.8,1.5,7.5-.3-.5-.6-1.1-.9-1.5l.2.7.2.8c.2.5.3,1,.6,1.6.3.6.5,1.1.9,1.7.4.6.7,1.2,1.2,1.6,1.6,1.9,3.4,3.2,5.2,4.2-.4-.4-.8-.9-1.2-1.3,2.5,1.7,4.1,2.7,5.9,3.6,1.8.9,3.7,1.5,6.7,2,2.7.3-4.6-2,.8-.7,3.3,1.1,7.6,2.1,12.1,2.9,4.5.8,9.3,1.4,13.7,1.6-.8-.6,1.6-.5,4-.6l.3.5c4.7-.4,5.7-.4,6.6-.1.5,0,.9.2,1.9.1.5,0,1.1,0,2-.3.4,0,.9-.2,1.5-.4.3,0,.6-.2.9-.3.4-.2.8-.3,1.2-.5.8-.7,1.6-1.4,2.1-2.2.7-.6,1.1-1.4,1.5-1.9.3-.6.6-1.1.8-1.5.2-.4.4-.8.5-1.2.1-.3.2-.6.3-.9.2-.5.4-.9.5-1.3.2-.4.3-.7.4-1,.6-1.3,1.1-2.8,1.1-7.3-.5,3.6-1.4,1.4-.4-2.8l.3,1.2c.3-2.4.3-3.1.7-4.6,0,1.4.5.8,1.2-2.3,0,.7,0,1.5,0,2.2.2-2.1.5-4,1-5.8.6-.9,1.2-1.8,1.9-2.5.7-.7,1.5-1.2,2.4-1.6,1.7-.7,3.9-.6,4.7-.2,0,0,.1,0,.4,0,.1,0,.3,0,.4,0,.2,0,.3,0,.5.1.2,0,.4,0,.6.1.2,0,.4.1.6.2.2,0,.4.1.6.2.2,0,.4.2.6.3.7.4,1.2,1,1.7,1.7.5.7.8,1.5,1.1,1.9-.4-.7-.4,0-.4.8,0,.8-.1,1.7-.4,1,.4,1,.8,3.5.7,6.2-.1,2.7-.6,5.6-1.1,7.2v-.6c-.3,1.5-.5,3.1-.8,4.6-.1.8-.2,1.6-.3,2.4,0,.8-.1,1.6-.1,2.6,0,2.7.8,5.4,2.8,7l.3.3c.1.1.3.2.4.3l.8.5c.3.2.5.4.8.5l.7.4c.4.2.8.3,1.1.5.4.1.7.3,1.1.4,2.8,1,5.5,1.6,8.2,2.2,2.7.6,5.4,1.3,8.2,1.9-.4-.6,5.6.7,4.2-.3,6,.6,11.4,1.5,15.9,1.9,4.5.5,8.3.4,10.4-.9,2.8-.2,4.5-.4,6-.5.7,0,1.4-.2,2.1-.3.4-.1.7-.2,1.2-.4.4-.2,1-.4,1.4-.8-.5.5-1.2.9-1.8,1.1.4-.2.9-.4,1.3-.7.4-.3.8-.6,1.2-.9.7-.6,1.1-1.2,1.6-1.8.8-1.1,1.3-2.1,1.8-3,.9-1.8,1.5-3.4,2-4.8,1-2.9,1.8-5.5,2.8-9.2.7-3.8-.2-4.6,1.4-11.1,0,2.2.5-.5.9-3-.2,1.6-.2,2.1.7-1.1,0-.5,0-1.2,0-1.9,0,0,0-.1.1,0,.6-4.2.3-3.5,0-1.6,0-.1-.2,0-.4.6,1.3-4.2,1.9-12,2.6-12.4.8-6.2,1.3-11.6,1.7-16.7.2-2.5.4-5,.6-7.5.1-1.2.2-2.5.3-3.7,0-.6.1-1.3.2-1.9,0-.7.1-1.3.2-2,.3-.6.4-.2.4.6,0,.4,0,1,0,1.7,0,.6-.1,1.3-.2,2.1l.2-1.8c0-.6.2-1.3.2-1.9.1-1.3.2-2.5.3-3.8.3,0,.2,1.1.1,2.5,0,.7-.2,1.4-.2,2.2,0,.4-.1.7-.2,1.1,0,.3,0,.6-.1.9.3-1,.5-2.2.7-3.4.2-1.2.3-2.3.4-3.5.2-2.3.2-4.7.3-7,0-4.8,0-9.7.7-14.9l-.3-2.2v-.6c-.1,0-.4-2.3-.4-3.8.5-1.5,1.1.1,1.2-5,.5-4.1,0-11.6-.5-16.9,0,2.9-.3,2-.5.7,0-2.6.4-4.1,0-6.1l.6-.3c-.5,1-1-6.7-1.4-7.7.2-.8.4.2.5,1.5.2,1.3.3,2.8.5,3.1-.3-5.2-.6-6.5-.7-7.8,0-.7-.2-1.3-.4-2.5-.1-.6-.2-1.3-.4-2.2-.1-.5-.2-1-.4-1.6,0-.3-.2-.6-.3-.9-.1-.3-.3-.7-.4-1.1-.2-.4-.4-.7-.6-.9-.2-.2-.3-.4-.4-.6-.2-.3-.4-.5-.5-.6-.2-.2-.1,0,0,.4.2.7.5,1.7-.4.6-1.4-2.2-3.1-4.2-5.3-5.8-2.1-1.6-4.5-2.9-7.2-4.1.6,0,1.3.2,1.9.3-3.5-1.4-6.5-2.4-9.1-3.4-2.6-1-5-1.8-7.3-2.3l-1.2,8c4,.6,7.7,1.2,11.2,2.3,3.4,1,6.5,2.4,8.8,4.6,1.2,1.1,2.2,2.4,3.1,4,.6.9,1,3.1,1.4,5.3.3,2.2.6,4.7.8,7.3.2,2.6.4,5.3.5,8.3,0,6.9,0,12.5-.3,17.5-.2,5-.5,9.4-.8,13.8-.3,4.4-.6,8.9-1,14-.2,2.5-.4,5.3-.7,8.2,0,.7-.2,1.4-.2,2.2-.1.8-.2,1.5-.3,2.3-.2,1.7-.4,3.4-.6,5.2-1.8,13.7-3.4,28.1-5.8,41.2-.2,3.2-1,7.4-2.1,11.7-1.1,4.3-2.5,8.6-3.6,11.6-.5.7-1,1.3-1.5,1.7-.2.4-.4.7-.5.9,0,0,0,.1-.1.2,0,0,0,0,0,0h-.2c-.7.4-1.9.7-3,.7v-.2c-1.5.4-3.4.6-5.1.6-1.7,0-3.2,0-4.2,0h.2c-1.5-.2-3-.2-4.5-.3l.8-.2c-6.6,0-13.4-.9-19.3-2.2l.4.7c-6.2-1.5-10.5-2.4-14.3-3.6-.5-.2-.9-.3-1.3-.5-.2,0-.5-.2-.6-.3h-.3c0-.2,0-.2-.1-.2-.3-.1-.6-.3-.7-.7-.2,0,0-2.9.7-5.7v.2c.3-3.7.7-7.1,1-10.5.3-3.4.5-6.6-.2-10.3-.4-1.8-1-3.7-2.2-5.5-1.2-1.8-3-3.4-5-4.4-2-1-4.3-1.5-6.3-1.5-2.1-.1-4.4,0-6.8.9,2.4-.8-1.1,0-1-.1-2.3.8-4.5,2.4-5.9,4.1-1.5,1.7-2.4,3.6-3,5.1-1.2,3.1-1.2,5.2-.7,5.4-.7,2.7-.9,3.7-1.2,4.2-.2.5-.4.4-.7.7.2,0,.2,1.2,0,2.8-.2,1.6-.4,3.7-.8,5.6,0-.6.1-1.2.2-1.8-.3,1.8-.7,3.6-1.2,5.2-.3.8-.6,1.4-.9,1.9-.3.5-.6.7-1.1.9.3,0,.5,0,.8.1.3,0,.5,0,.8-.1-.7.7-1.3.7-1.8.8-.5,0-.7,0-.8-.1-.2,0-.3-.1-.8,0-.4,0-1.1.2-2.5.4l.2.8c-4.1.4-7.4,0-10.7-.4-3.3-.5-6.5-1.1-10.4-1.8-4.1-.5-8.3-1.2-12.3-2.1-2-.5-4-1-5.9-1.6-1.9-.6-3.8-1.4-5.4-2.3-1.6-.9-3-2-3.6-2.9-.1,0-.2-.3-.2-.4,0-.2-.2-.3-.2-.5-.1-.4-.3-.8-.4-1.2l-.4-1.4-.3-1.5c-.7-4-1.1-8.3-1.3-12.6-.4-8.6-.3-17.2.1-25.6.4-8.4,1.1-16.6,2.2-24.5l.7-1.3c.9-.5-.4-8.8.5-9.9v-3.7c.3-1,.8-3.1.7-1.3.5-3.3.4-3.4.5-5.9l1.1-3.6c1.3-6.7,2.1-12.9,3-19.1.9-6.2,2-12.5,3.9-19.2.7-2,1.4-4.2,2.3-6.5.9-2.3,1.8-4.7,3-7,.6-1.1,1.2-2.2,1.9-3.2.7-1,1.5-1.7,2.1-2.2l.2-.2.4-.2c.2-.1.5-.3.8-.4.6-.3,1.2-.5,1.8-.7,1.3-.4,2.7-.8,4.1-1.1,5.7-1.3,11.9-1.8,17.6-2,5.7-.2,11.1.1,15.4.7,1.5.2,3.1.5,4.6.9,1.5.4,3,.9,4.2,1.5,1.3.6,2.4,1.4,3,2.2.6.9,1.1,2.2,1.3,3.7.5,3,.2,6.4,0,9.8-.3,3.5-.6,7.1-.4,11.1.1,2,.4,4.1,1.3,6.3.4,1.1,1,2.2,1.7,3.2.4.5.8,1,1.3,1.4.5.4.9.9,1.5,1.2,2.1,1.5,4.5,2.2,6.6,2.5,2.1.3,4.5.4,7-.4,2.5-.7,4.8-2.4,6.2-4.3,1.5-1.9,2.4-4,3-5.9,1.2-3.9,1.4-7.4,1.7-10.8.2-.9.2-3.1.1-3.1.2-1.5.5-3,.8-4.3.3-1.3.9-2.3,1.2-2.6,1.3-1.2,3.1-2.1,5.1-2.7,2-.6,4.2-1,6.5-1.1,0,0,.4,0,1.2,0,.8,0,1.9.1,3.3.2,2.8.2,6.8.7,11.4,1.4l1.2-8c-3.6-.6-6.9-.9-10.1-.9-3.2,0-6.4.2-9.6.9Z"/>
      </g>
    </g>
    <g>
      <rect class="st0" x="477.3" y="245.3" width="99.8" height="10.7"/>
      <g>
        <path class="st1" d="M491.5,247.7l.3.2c0-.1,0-.2-.3-.2Z"/>
        <path class="st1" d="M556.4,247.6s0,0,0,0c0,0,0,0,0,0Z"/>
        <path class="st1" d="M501.5,255.5h0s0,0,0,0h0Z"/>
      </g>
    </g>
  </g>
</svg>